<svg width="29" height="29" viewBox="0 0 29 29" fill="none" xmlns="http://www.w3.org/2000/svg">
<path d="M6.33333 6.0009H8.66667V9.50089H20.3333V6.0009H22.6667V11.8342H25V6.0009C25 4.71756 23.95 3.66756 22.6667 3.66756H17.79C17.3 2.31423 16.0167 1.33423 14.5 1.33423C12.9833 1.33423 11.7 2.31423 11.21 3.66756H6.33333C5.05 3.66756 4 4.71756 4 6.0009V22.3342C4 23.6176 5.05 24.6676 6.33333 24.6676H13.3333V22.3342H6.33333V6.0009ZM14.5 3.66756C15.1417 3.66756 15.6667 4.19256 15.6667 4.83423C15.6667 5.47589 15.1417 6.0009 14.5 6.0009C13.8583 6.0009 13.3333 5.47589 13.3333 4.83423C13.3333 4.19256 13.8583 3.66756 14.5 3.66756Z" fill="white"/>
<path d="M25 13.5842L18.595 20.0009L15.0833 16.5009L13.3333 18.2509L18.595 23.5009L26.75 15.3342L25 13.5842Z" fill="white"/>
</svg>
