<svg width="29" height="29" viewBox="0 0 29 29" fill="none" xmlns="http://www.w3.org/2000/svg">
<path d="M23.6933 21.7159C24.2533 20.8175 24.5683 19.7675 24.4983 18.6125C24.3466 16.1042 22.3516 13.9809 19.8666 13.7125C19.131 13.627 18.3855 13.698 17.6792 13.921C16.9729 14.144 16.3218 14.514 15.7687 15.0065C15.2155 15.499 14.7729 16.103 14.4698 16.7788C14.1666 17.4546 14.01 18.1869 14.01 18.9275C14.01 21.8325 16.355 24.1775 19.2483 24.1775C20.275 24.1775 21.2316 23.8742 22.0366 23.3609L24.8483 26.1725C25.3033 26.6275 26.05 26.6275 26.505 26.1725C26.96 25.7175 26.96 24.9709 26.505 24.5159L23.6933 21.7159ZM19.26 21.8442C18.4864 21.8442 17.7446 21.5369 17.1976 20.9899C16.6506 20.443 16.3433 19.7011 16.3433 18.9275C16.3433 18.154 16.6506 17.4121 17.1976 16.8651C17.7446 16.3182 18.4864 16.0109 19.26 16.0109C20.0335 16.0109 20.7754 16.3182 21.3224 16.8651C21.8694 17.4121 22.1766 18.154 22.1766 18.9275C22.1766 19.7011 21.8694 20.443 21.3224 20.9899C20.7754 21.5369 20.0335 21.8442 19.26 21.8442ZM18.84 11.9275C17.9766 11.9509 17.1483 12.1375 16.39 12.4525L15.7483 11.4842L12.155 17.3292C12.059 17.4858 11.9274 17.6174 11.7709 17.7135C11.6144 17.8096 11.4374 17.8674 11.2543 17.8822C11.0713 17.897 10.8873 17.8683 10.7175 17.7986C10.5476 17.7288 10.3965 17.62 10.2766 17.4809L7.80332 14.5992L4.23332 20.3159C3.87165 20.8875 3.10165 21.0392 2.55332 20.6425C2.06332 20.2809 1.92332 19.6042 2.24998 19.0792L6.65998 12.0209C7.07998 11.3559 8.02498 11.2859 8.53832 11.8809L11 14.7509L14.71 8.71921C14.812 8.55252 14.9544 8.41425 15.124 8.31719C15.2936 8.22013 15.485 8.16741 15.6804 8.16393C15.8758 8.16044 16.0689 8.20628 16.2419 8.29723C16.4148 8.38817 16.5621 8.52127 16.67 8.68421L18.84 11.9275ZM21.8616 12.5109C21.115 12.1842 20.31 11.9859 19.47 11.9392L24.7666 3.55088C25.1283 2.97921 25.8983 2.83921 26.435 3.23588C26.9366 3.59754 27.065 4.28588 26.7383 4.79921L21.8616 12.5109Z" fill="white"/>
</svg>
