<svg width="580" height="580" viewBox="0 0 580 580" fill="none" xmlns="http://www.w3.org/2000/svg">
<path d="M474.591 119.48C445.73 53.6732 376.455 28.8956 321.796 73.08C300.452 90.3176 287.135 117.752 261 128.76C236.478 139.084 205.413 136.045 178.895 141.636C122.426 153.468 46.4 198.36 52.2 267.531C54.7404 297.83 75.1796 331.482 85.2832 359.832C96.8832 392.451 103.843 433.26 134.548 452.76C187.189 486.237 250.688 458.873 298.108 431.88C323.628 417.368 337.676 408.448 365.156 413.424C390.595 418.064 413.505 434.304 438.364 415.036C457.028 400.571 458.571 371.258 474.243 354.044C491.898 334.648 509.797 333.245 518.972 304.094C530.097 268.726 513.706 246.628 502.628 215.029C491.55 183.431 488.186 150.44 474.591 119.48Z" fill="#CFB2DD"/>
<g opacity="0.7">
<path d="M474.591 119.48C445.73 53.6732 376.455 28.8956 321.796 73.08C300.452 90.3176 287.135 117.752 261 128.76C236.478 139.084 205.413 136.045 178.895 141.636C122.426 153.468 46.4 198.36 52.2 267.531C54.7404 297.83 75.1796 331.482 85.2832 359.832C96.8832 392.451 103.843 433.26 134.548 452.76C187.189 486.237 250.688 458.873 298.108 431.88C323.628 417.368 337.676 408.448 365.156 413.424C390.595 418.064 413.505 434.304 438.364 415.036C457.028 400.571 458.571 371.258 474.243 354.044C491.898 334.648 509.797 333.245 518.972 304.094C530.097 268.726 513.706 246.628 502.628 215.029C491.55 183.431 488.186 150.44 474.591 119.48Z" fill="white"/>
</g>
<path d="M254.98 507.709C354.011 507.709 434.292 502.707 434.292 496.538C434.292 490.369 354.011 485.367 254.98 485.367C155.948 485.367 75.6667 490.369 75.6667 496.538C75.6667 502.707 155.948 507.709 254.98 507.709Z" fill="#CFB2DD"/>
<path opacity="0.8" d="M254.98 507.709C354.011 507.709 434.292 502.707 434.292 496.538C434.292 490.369 354.011 485.367 254.98 485.367C155.948 485.367 75.6667 490.369 75.6667 496.538C75.6667 502.707 155.948 507.709 254.98 507.709Z" fill="white"/>
<path d="M389.725 71.7576H209.426C196.979 71.7576 186.888 81.8486 186.888 94.2964V474.939C186.888 487.387 196.979 497.478 209.426 497.478H389.725C402.173 497.478 412.264 487.387 412.264 474.939V94.2964C412.264 81.8486 402.173 71.7576 389.725 71.7576Z" fill="#263238"/>
<path d="M402.242 118.506H196.898V450.73H402.242V118.506Z" fill="white" stroke="#263238" stroke-width="1.33739" stroke-miterlimit="10"/>
<path d="M331.048 253.033C348.43 235.651 348.43 207.469 331.048 190.087C313.666 172.705 285.485 172.705 268.103 190.087C250.721 207.469 250.721 235.651 268.103 253.033C285.485 270.415 313.666 270.415 331.048 253.033Z" fill="#CFB2DD"/>
<path d="M358.011 429.838H241.152C240.889 429.84 240.629 429.789 240.385 429.69C240.142 429.59 239.921 429.443 239.734 429.258C239.548 429.072 239.399 428.852 239.299 428.609C239.198 428.366 239.146 428.106 239.146 427.843C239.144 427.579 239.195 427.317 239.295 427.073C239.395 426.829 239.543 426.607 239.73 426.42C239.917 426.234 240.138 426.086 240.383 425.986C240.627 425.885 240.888 425.834 241.152 425.836H358.011C358.274 425.836 358.534 425.888 358.777 425.989C359.02 426.09 359.24 426.238 359.426 426.424C359.611 426.611 359.758 426.832 359.857 427.076C359.957 427.319 360.007 427.58 360.006 427.843C360.006 428.372 359.796 428.879 359.422 429.254C359.047 429.628 358.54 429.838 358.011 429.838Z" fill="#CFB2DD"/>
<path d="M361.816 291.09H237.336C234.767 291.09 232.684 293.173 232.684 295.742V310.416C232.684 312.985 234.767 315.068 237.336 315.068H361.816C364.385 315.068 366.467 312.985 366.467 310.416V295.742C366.467 293.173 364.385 291.09 361.816 291.09Z" fill="#CFB2DD"/>
<path d="M361.816 335.936H237.336C234.767 335.936 232.684 338.019 232.684 340.588V355.262C232.684 357.831 234.767 359.913 237.336 359.913H361.816C364.385 359.913 366.467 357.831 366.467 355.262V340.588C366.467 338.019 364.385 335.936 361.816 335.936Z" fill="#CFB2DD"/>
<path d="M321.737 243.762L308.641 236.222V229.993C310.537 227.699 311.911 225.019 312.666 222.14C313.117 222.3 313.592 222.382 314.07 222.384C315.694 222.384 316.726 217.349 316.9 213.753C318.791 209.751 316.216 207.408 316.216 207.408C316.216 207.408 317.283 206.341 317.991 202.06C318.698 197.78 315.497 199.566 313.003 195.646C310.509 191.725 308.722 187.456 300.533 187.456C298.276 187.382 296.049 187.988 294.142 189.196C292.235 190.404 290.735 192.159 289.838 194.23C287.799 194.238 285.768 194.475 283.782 194.938C281.277 195.646 280.569 203.847 282.704 207.06C283.659 208.816 284.169 210.78 284.188 212.779C283.62 212.083 283.028 211.897 282.704 213.475C281.996 217.036 284.85 222.024 284.85 222.024L286.323 221.606C287.065 224.683 288.497 227.551 290.51 229.993V236.222L277.414 243.762C275.884 244.645 274.614 245.915 273.731 247.444C272.847 248.973 272.381 250.708 272.38 252.474V256.789C280.169 262.806 289.733 266.07 299.576 266.07C309.418 266.07 318.983 262.806 326.772 256.789V252.474C326.773 250.707 326.308 248.972 325.424 247.442C324.54 245.913 323.269 244.644 321.737 243.762Z" fill="#263238"/>
<path d="M249.632 353.951C249.332 353.947 249.045 353.826 248.832 353.614C248.717 353.512 248.626 353.387 248.564 353.247C248.502 353.107 248.471 352.956 248.472 352.802C248.475 352.593 248.536 352.389 248.646 352.211L250.734 348.87L246.662 348.998C246.509 349.007 246.355 348.984 246.211 348.93C246.067 348.876 245.936 348.793 245.827 348.684C245.638 348.472 245.533 348.197 245.533 347.913C245.533 347.629 245.638 347.354 245.827 347.142C245.934 347.03 246.064 346.942 246.209 346.886C246.353 346.83 246.508 346.806 246.662 346.817L250.676 346.968L248.611 343.638C248.499 343.457 248.439 343.248 248.437 343.035C248.436 342.882 248.467 342.73 248.529 342.59C248.591 342.45 248.683 342.325 248.797 342.223C249.01 342.012 249.297 341.891 249.597 341.887C249.795 341.888 249.988 341.945 250.154 342.052C250.321 342.159 250.453 342.311 250.537 342.49L252.52 346.074L254.481 342.513C254.574 342.323 254.717 342.162 254.895 342.048C255.073 341.933 255.278 341.87 255.49 341.864C255.637 341.864 255.781 341.896 255.915 341.956C256.049 342.016 256.169 342.103 256.267 342.212C256.48 342.432 256.597 342.729 256.592 343.035C256.591 343.234 256.539 343.43 256.441 343.604L254.342 346.968L258.413 346.817C258.568 346.806 258.723 346.83 258.867 346.886C259.011 346.942 259.141 347.03 259.248 347.142C259.446 347.347 259.554 347.622 259.55 347.907C259.549 348.195 259.442 348.472 259.248 348.684C259.139 348.793 259.008 348.876 258.864 348.93C258.72 348.984 258.567 349.007 258.413 348.998L254.318 348.87L256.36 352.176C256.474 352.361 256.535 352.574 256.534 352.791C256.534 353.098 256.412 353.393 256.194 353.611C255.977 353.829 255.682 353.951 255.374 353.951C255.175 353.948 254.981 353.887 254.816 353.776C254.652 353.665 254.523 353.508 254.446 353.324L252.509 349.844L250.583 353.324C250.498 353.506 250.364 353.661 250.196 353.772C250.028 353.882 249.833 353.944 249.632 353.951Z" fill="#263238"/>
<path d="M268.447 353.951C268.147 353.947 267.86 353.826 267.647 353.614C267.533 353.512 267.442 353.387 267.38 353.247C267.318 353.107 267.286 352.956 267.287 352.802C267.291 352.593 267.351 352.389 267.461 352.211L269.549 348.87L265.489 348.998C265.334 349.005 265.18 348.981 265.034 348.927C264.889 348.873 264.755 348.791 264.642 348.684C264.488 348.526 264.386 348.324 264.348 348.106C264.31 347.888 264.339 347.664 264.43 347.462C264.521 347.261 264.671 347.092 264.86 346.976C265.049 346.861 265.268 346.806 265.489 346.817L269.491 346.968L267.426 343.638C267.314 343.457 267.254 343.248 267.252 343.035C267.251 342.882 267.283 342.73 267.345 342.59C267.407 342.45 267.498 342.325 267.612 342.223C267.825 342.012 268.112 341.891 268.412 341.887C268.61 341.888 268.803 341.945 268.97 342.052C269.136 342.159 269.269 342.311 269.352 342.49L271.336 346.074L273.296 342.513C273.389 342.323 273.532 342.162 273.71 342.048C273.888 341.933 274.094 341.87 274.305 341.864C274.452 341.863 274.597 341.894 274.731 341.954C274.865 342.014 274.985 342.102 275.082 342.212C275.19 342.32 275.275 342.449 275.333 342.59C275.39 342.731 275.42 342.883 275.419 343.035C275.415 343.236 275.359 343.431 275.256 343.604L273.157 346.968L277.24 346.84C277.393 346.83 277.546 346.853 277.688 346.91C277.831 346.966 277.959 347.053 278.064 347.165C278.261 347.37 278.37 347.645 278.365 347.93C278.364 348.218 278.257 348.495 278.064 348.708C277.957 348.815 277.828 348.899 277.686 348.953C277.544 349.007 277.392 349.03 277.24 349.021L273.134 348.893L275.175 352.199C275.29 352.384 275.35 352.597 275.349 352.814C275.349 353.122 275.227 353.417 275.009 353.634C274.792 353.852 274.497 353.974 274.189 353.974C273.99 353.971 273.797 353.911 273.632 353.799C273.467 353.688 273.338 353.531 273.261 353.348L271.324 349.868L269.398 353.348C269.31 353.525 269.174 353.675 269.007 353.782C268.839 353.888 268.646 353.946 268.447 353.951Z" fill="#263238"/>
<path d="M287.274 353.951C286.97 353.95 286.678 353.829 286.462 353.614C286.348 353.512 286.257 353.387 286.195 353.247C286.133 353.107 286.101 352.956 286.102 352.802C286.106 352.593 286.166 352.389 286.276 352.211L288.364 348.87L284.304 348.998C284.086 349.006 283.869 348.95 283.683 348.835C283.497 348.72 283.349 348.553 283.258 348.354C283.167 348.155 283.138 347.933 283.173 347.717C283.209 347.501 283.308 347.301 283.458 347.142C283.567 347.03 283.7 346.943 283.846 346.887C283.992 346.831 284.148 346.807 284.304 346.817L288.306 346.968L286.242 343.638C286.129 343.457 286.069 343.248 286.068 343.035C286.071 342.883 286.105 342.733 286.167 342.593C286.228 342.454 286.317 342.328 286.427 342.223C286.643 342.009 286.935 341.888 287.239 341.887C287.435 341.89 287.626 341.949 287.79 342.055C287.954 342.162 288.085 342.313 288.167 342.49L290.151 346.074L292.111 342.513C292.204 342.323 292.347 342.162 292.525 342.048C292.703 341.933 292.909 341.87 293.12 341.864C293.267 341.863 293.413 341.894 293.547 341.954C293.681 342.014 293.8 342.102 293.898 342.212C294.005 342.32 294.09 342.449 294.148 342.59C294.206 342.731 294.235 342.883 294.234 343.035C294.23 343.236 294.174 343.431 294.072 343.604L291.972 346.968L296.055 346.817C296.205 346.802 296.357 346.819 296.5 346.868C296.643 346.916 296.773 346.995 296.883 347.098C296.993 347.201 297.08 347.327 297.137 347.467C297.194 347.606 297.221 347.756 297.215 347.907C297.218 348.193 297.114 348.47 296.925 348.684C296.816 348.793 296.685 348.876 296.541 348.93C296.397 348.984 296.243 349.007 296.09 348.998L291.995 348.87L294.025 352.176C294.14 352.361 294.2 352.574 294.199 352.791C294.196 352.943 294.162 353.093 294.1 353.233C294.038 353.372 293.95 353.498 293.84 353.603C293.739 353.711 293.617 353.798 293.481 353.858C293.345 353.918 293.199 353.949 293.051 353.951C292.854 353.947 292.662 353.886 292.499 353.775C292.336 353.664 292.209 353.507 292.134 353.324L290.186 349.844L288.26 353.324C288.173 353.512 288.034 353.672 287.859 353.783C287.684 353.894 287.481 353.952 287.274 353.951Z" fill="#263238"/>
<path d="M306.089 353.951C305.785 353.95 305.493 353.829 305.277 353.614C305.059 353.4 304.934 353.108 304.929 352.802C304.926 352.594 304.982 352.388 305.092 352.211L307.18 348.87L303.12 348.998C302.965 349.005 302.81 348.981 302.664 348.927C302.519 348.873 302.386 348.791 302.273 348.684C302.084 348.472 301.979 348.197 301.979 347.913C301.979 347.629 302.084 347.354 302.273 347.142C302.385 347.033 302.518 346.949 302.663 346.893C302.809 346.837 302.964 346.811 303.12 346.817L307.133 346.968L305.08 343.638C304.968 343.457 304.907 343.248 304.906 343.035C304.91 342.883 304.943 342.733 305.005 342.593C305.067 342.454 305.155 342.328 305.266 342.223C305.482 342.009 305.773 341.888 306.078 341.887C306.275 341.888 306.468 341.945 306.635 342.052C306.801 342.159 306.934 342.311 307.017 342.49L308.989 346.074L310.95 342.513C311.043 342.323 311.186 342.162 311.364 342.048C311.542 341.933 311.747 341.87 311.959 341.864C312.106 341.863 312.251 341.894 312.385 341.954C312.519 342.014 312.639 342.102 312.736 342.212C312.844 342.32 312.929 342.449 312.986 342.59C313.044 342.731 313.073 342.883 313.072 343.035C313.068 343.236 313.012 343.431 312.91 343.604L310.81 346.968L314.894 346.817C315.044 346.802 315.195 346.819 315.338 346.868C315.481 346.916 315.612 346.995 315.722 347.098C315.832 347.201 315.918 347.327 315.975 347.467C316.033 347.606 316.059 347.756 316.054 347.907C316.056 348.193 315.953 348.47 315.764 348.684C315.654 348.793 315.523 348.876 315.379 348.93C315.236 348.984 315.082 349.007 314.928 348.998L310.834 348.87L312.864 352.176C312.978 352.361 313.038 352.574 313.038 352.791C313.039 352.944 313.007 353.096 312.945 353.236C312.883 353.376 312.792 353.501 312.678 353.603C312.577 353.711 312.455 353.798 312.319 353.858C312.184 353.918 312.037 353.949 311.889 353.951C311.692 353.947 311.5 353.886 311.337 353.775C311.174 353.664 311.048 353.507 310.973 353.324L309.024 349.844L307.098 353.324C307.01 353.516 306.867 353.678 306.688 353.789C306.508 353.9 306.3 353.957 306.089 353.951Z" fill="#263238"/>
<path d="M324.904 353.951C324.6 353.95 324.308 353.829 324.092 353.614C323.913 353.432 323.798 353.196 323.767 352.942C323.735 352.688 323.789 352.431 323.918 352.211L325.995 348.87L321.935 348.998C321.78 349.005 321.625 348.981 321.48 348.927C321.334 348.873 321.201 348.791 321.088 348.684C320.899 348.472 320.794 348.197 320.794 347.913C320.794 347.629 320.899 347.354 321.088 347.142C321.2 347.033 321.333 346.949 321.478 346.893C321.624 346.837 321.779 346.811 321.935 346.817L325.948 346.968L323.884 343.638C323.771 343.457 323.711 343.248 323.71 343.035C323.714 342.729 323.839 342.437 324.058 342.223C324.274 342.009 324.565 341.888 324.87 341.887C325.067 341.888 325.26 341.945 325.427 342.052C325.593 342.159 325.726 342.311 325.809 342.49L327.781 346.074L329.742 342.513C329.835 342.323 329.978 342.162 330.156 342.048C330.334 341.933 330.539 341.87 330.751 341.864C330.899 341.863 331.046 341.893 331.182 341.953C331.318 342.013 331.44 342.101 331.54 342.212C331.752 342.432 331.869 342.729 331.864 343.035C331.86 343.236 331.804 343.431 331.702 343.604L329.602 346.968L333.686 346.817C333.836 346.802 333.987 346.819 334.13 346.868C334.273 346.916 334.404 346.995 334.514 347.098C334.624 347.201 334.71 347.327 334.767 347.467C334.825 347.606 334.851 347.756 334.846 347.907C334.848 348.193 334.745 348.47 334.556 348.684C334.446 348.793 334.315 348.876 334.171 348.93C334.028 348.984 333.874 349.007 333.72 348.998L329.626 348.87L331.656 352.176C331.77 352.361 331.83 352.574 331.83 352.791C331.831 352.944 331.799 353.096 331.737 353.236C331.675 353.376 331.584 353.501 331.47 353.603C331.369 353.711 331.247 353.798 331.111 353.858C330.976 353.918 330.829 353.949 330.681 353.951C330.484 353.947 330.292 353.886 330.129 353.775C329.966 353.664 329.84 353.507 329.765 353.324L327.816 349.844L325.89 353.324C325.804 353.512 325.664 353.672 325.49 353.783C325.315 353.894 325.112 353.952 324.904 353.951Z" fill="#263238"/>
<path d="M343.72 353.951C343.419 353.947 343.132 353.826 342.919 353.614C342.805 353.512 342.714 353.387 342.652 353.247C342.59 353.107 342.558 352.956 342.56 352.802C342.563 352.593 342.623 352.389 342.734 352.211L344.81 348.87L340.75 348.998C340.601 349.009 340.451 348.989 340.309 348.939C340.168 348.889 340.039 348.81 339.93 348.708C339.821 348.605 339.734 348.481 339.676 348.343C339.617 348.205 339.588 348.057 339.59 347.907C339.589 347.765 339.616 347.625 339.67 347.493C339.724 347.362 339.803 347.242 339.903 347.142C340.01 347.03 340.14 346.942 340.285 346.886C340.429 346.83 340.584 346.806 340.738 346.817L344.752 346.968L342.687 343.638C342.575 343.457 342.515 343.248 342.513 343.035C342.517 342.729 342.643 342.437 342.861 342.223C343.077 342.009 343.369 341.888 343.673 341.887C343.871 341.888 344.064 341.945 344.23 342.052C344.397 342.159 344.529 342.311 344.613 342.49L346.585 346.074L348.557 342.513C348.649 342.325 348.79 342.165 348.966 342.051C349.142 341.936 349.345 341.872 349.554 341.864C349.703 341.863 349.85 341.893 349.986 341.953C350.122 342.013 350.244 342.101 350.343 342.212C350.556 342.432 350.673 342.729 350.668 343.035C350.667 343.234 350.615 343.43 350.517 343.604L348.418 346.968L352.489 346.817C352.644 346.806 352.799 346.83 352.943 346.886C353.087 346.942 353.217 347.03 353.324 347.142C353.522 347.347 353.631 347.622 353.626 347.907C353.625 348.195 353.518 348.472 353.324 348.684C353.215 348.793 353.084 348.876 352.94 348.93C352.796 348.984 352.643 349.007 352.489 348.998L348.394 348.87L350.424 352.176C350.539 352.361 350.599 352.574 350.598 352.791C350.594 353.097 350.469 353.389 350.25 353.603C350.039 353.819 349.752 353.943 349.45 353.951C349.253 353.947 349.061 353.886 348.898 353.775C348.735 353.664 348.608 353.507 348.534 353.324L346.585 349.844L344.659 353.324C344.576 353.505 344.444 353.66 344.278 353.77C344.112 353.881 343.919 353.943 343.72 353.951Z" fill="#263238"/>
<g style="mix-blend-mode:multiply">
<path d="M402.242 118.946H196.898V131.811H402.242V118.946Z" fill="#CFB2DD"/>
</g>
<path d="M321.9 95.2476H277.24C276.434 95.2476 275.661 94.9274 275.091 94.3574C274.521 93.7875 274.201 93.0144 274.201 92.2084C274.201 91.4024 274.521 90.6293 275.091 90.0594C275.661 89.4894 276.434 89.1692 277.24 89.1692H321.9C322.706 89.1692 323.479 89.4894 324.049 90.0594C324.619 90.6293 324.939 91.4024 324.939 92.2084C324.939 93.0144 324.619 93.7875 324.049 94.3574C323.479 94.9274 322.706 95.2476 321.9 95.2476Z" fill="#CFB2DD" stroke="#263238" stroke-width="1.33739" stroke-linecap="round" stroke-linejoin="round"/>
<path d="M311.75 469.498C311.752 467.088 311.04 464.732 309.702 462.727C308.365 460.722 306.463 459.159 304.236 458.236C302.01 457.313 299.56 457.071 297.197 457.54C294.833 458.01 292.662 459.17 290.957 460.874C289.253 462.578 288.093 464.75 287.623 467.113C287.154 469.477 287.396 471.927 288.319 474.153C289.243 476.379 290.806 478.281 292.81 479.619C294.815 480.956 297.172 481.669 299.582 481.667C302.808 481.664 305.901 480.381 308.183 478.099C310.464 475.818 311.747 472.725 311.75 469.498Z" fill="#CFB2DD"/>
<path d="M305.753 463.327H293.41V475.67H305.753V463.327Z" fill="#CFB2DD" stroke="#263238" stroke-width="1.33739" stroke-linecap="round" stroke-linejoin="round"/>
<path d="M446.6 329.44C446.6 329.44 430.43 288.353 444.825 283.469C459.812 278.377 459.151 305.509 458.571 318.733C457.353 346.991 454.233 352.246 451.901 345.344L446.6 329.44ZM441.74 361.491C446.182 367.291 447.435 361.282 439.42 334.15C435.661 321.39 427.495 295.58 414.967 305.266C402.938 314.546 431.566 348.186 431.566 348.186L441.74 361.491ZM433.156 385.039C437.39 388.797 437.471 384.053 427.414 364.46C422.692 355.285 412.705 336.713 404.527 345.9C396.674 354.763 423.435 376.304 423.435 376.304L433.156 385.039ZM423.876 413.041C428.11 416.811 428.191 412.055 418.134 392.474C413.412 383.299 403.425 364.716 395.247 373.914C387.44 382.8 414.12 404.341 414.12 404.341L423.876 413.041ZM450.672 356.039C443.897 358.684 449.28 361.56 477.572 361.479C490.842 361.479 517.94 360.876 512.163 346.132C506.63 331.969 466.332 350.007 466.332 350.007L450.672 356.039ZM442.958 374.877C435.789 376.118 440.498 380.016 468.246 385.561C481.249 388.171 507.918 392.985 505.192 377.441C502.582 362.454 459.499 372.128 459.499 372.128L442.958 374.877ZM434.327 397.88C428.226 398.762 432.123 402.16 455.451 407.496C466.39 410.002 488.836 414.7 486.887 401.441C485.031 388.681 448.375 395.896 448.375 395.896L434.327 397.88ZM427.773 419.189C421.799 420.709 426.033 423.678 449.813 426.509C460.949 427.831 483.766 430.128 480.437 417.148C477.224 404.689 441.542 415.721 441.542 415.721L427.773 419.189ZM462.736 332.92C459.256 340.715 466.482 339.532 491.051 318.095C502.558 308.038 525.642 286.996 507.361 276.521C489.81 266.452 470.937 315.033 470.937 315.033L462.736 332.92ZM428.678 446.948C425.001 449.094 428.608 449.929 445.475 446.565C453.386 444.999 469.475 441.519 464.035 434.652C458.768 428.04 437.192 441.96 437.192 441.96L428.678 446.948Z" fill="#CFB2DD"/>
<path opacity="0.3" d="M446.6 329.44C446.6 329.44 430.43 288.353 444.825 283.469C459.812 278.377 459.151 305.509 458.571 318.733C457.353 346.991 454.233 352.246 451.901 345.344L446.6 329.44ZM441.74 361.491C446.182 367.291 447.435 361.282 439.42 334.15C435.661 321.39 427.495 295.58 414.967 305.266C402.938 314.546 431.566 348.186 431.566 348.186L441.74 361.491ZM433.156 385.039C437.39 388.797 437.471 384.053 427.414 364.46C422.692 355.285 412.705 336.713 404.527 345.9C396.674 354.763 423.435 376.304 423.435 376.304L433.156 385.039ZM423.876 413.041C428.11 416.811 428.191 412.055 418.134 392.474C413.412 383.299 403.425 364.716 395.247 373.914C387.44 382.8 414.12 404.341 414.12 404.341L423.876 413.041ZM450.672 356.039C443.897 358.684 449.28 361.56 477.572 361.479C490.842 361.479 517.94 360.876 512.163 346.132C506.63 331.969 466.332 350.007 466.332 350.007L450.672 356.039ZM442.958 374.877C435.789 376.118 440.498 380.016 468.246 385.561C481.249 388.171 507.918 392.985 505.192 377.441C502.582 362.454 459.499 372.128 459.499 372.128L442.958 374.877ZM434.327 397.88C428.226 398.762 432.123 402.16 455.451 407.496C466.39 410.002 488.836 414.7 486.887 401.441C485.031 388.681 448.375 395.896 448.375 395.896L434.327 397.88ZM427.773 419.189C421.799 420.709 426.033 423.678 449.813 426.509C460.949 427.831 483.766 430.128 480.437 417.148C477.224 404.689 441.542 415.721 441.542 415.721L427.773 419.189ZM462.736 332.92C459.256 340.715 466.482 339.532 491.051 318.095C502.558 308.038 525.642 286.996 507.361 276.521C489.81 266.452 470.937 315.033 470.937 315.033L462.736 332.92ZM428.678 446.948C425.001 449.094 428.608 449.929 445.475 446.565C453.386 444.999 469.475 441.519 464.035 434.652C458.768 428.04 437.192 441.96 437.192 441.96L428.678 446.948Z" fill="white"/>
<path d="M437.97 453.595H405.13V460.392H407.995L413.923 497.478H429.177L435.104 460.392H437.97V453.595Z" fill="#CFB2DD"/>
<path opacity="0.3" d="M437.97 453.595H405.13V460.392H407.995L413.923 497.478H429.177L435.104 460.392H437.97V453.595Z" fill="white"/>
<path d="M142.309 248.043L104.11 235.573L100.711 226.594L92.9508 226.351L78.8684 223.683L80.562 226.594L98.2868 239.459L102.66 241.64L142.61 262.508L142.309 248.043Z" fill="white" stroke="#263238" stroke-width="1.00396" stroke-miterlimit="10"/>
<path d="M100.711 226.594L97.0689 224.414L89.7957 227.082L91.002 228.532L100.711 226.594Z" fill="white" stroke="#263238" stroke-width="1.00396" stroke-linejoin="round"/>
<path d="M142.309 248.043L104.11 235.573L100.711 226.594L92.9508 226.351L78.8684 223.683L80.562 226.594L98.2868 239.459L102.66 241.64L142.61 262.508L142.309 248.043Z" fill="white"/>
<path opacity="0.5" d="M142.309 248.043L104.11 235.573L100.711 226.594L92.9508 226.351L78.8684 223.683L80.562 226.594L98.2868 239.459L102.66 241.64L142.61 262.508L142.309 248.043Z" fill="#CFB2DD" stroke="#263238" stroke-width="1.00396" stroke-miterlimit="10"/>
<path d="M142.309 248.043L104.11 235.573L100.711 226.594L92.9508 226.351L78.8684 223.683L80.562 226.594L98.2868 239.459L102.66 241.64L142.61 262.508L142.309 248.043Z" stroke="#263238" stroke-width="1.00396" stroke-miterlimit="10"/>
<path d="M100.711 226.594L97.0689 224.414L89.7957 227.082L91.002 228.532L100.711 226.594Z" fill="white"/>
<path opacity="0.5" d="M100.711 226.594L97.0689 224.414L89.7957 227.082L91.002 228.532L100.711 226.594Z" fill="#CFB2DD" stroke="#263238" stroke-width="1.00396" stroke-linejoin="round"/>
<path d="M100.711 226.594L97.0689 224.414L89.7957 227.082L91.002 228.532L100.711 226.594Z" stroke="#263238" stroke-width="1.00396" stroke-linejoin="round"/>
<path d="M150.417 167.11C150.417 167.11 149.826 172.33 151.299 175.682C152.772 179.034 160.95 190.391 160.95 190.391L145.684 202.629C145.684 202.629 139.351 189.869 138.144 187.804C136.938 185.739 135.488 176.854 139.42 170.485C143.353 164.117 149.014 162.4 150.417 167.11Z" fill="white"/>
<g style="mix-blend-mode:multiply" opacity="0.5">
<path d="M142.576 183.883L149.199 197.618L145.673 202.64L139.014 190.75L142.576 183.883Z" fill="#CFB2DD"/>
</g>
<path d="M150.417 167.11C150.417 167.11 149.826 172.33 151.299 175.682C152.772 179.034 160.95 190.391 160.95 190.391L145.684 202.629C145.684 202.629 139.351 189.869 138.144 187.804C136.938 185.739 135.488 176.854 139.42 170.485C143.353 164.117 149.014 162.4 150.417 167.11Z" stroke="#263238" stroke-width="1.00396" stroke-miterlimit="10"/>
<path d="M155.15 157.551C154.21 151.751 147.564 139.954 137.019 140.406C130.175 140.708 126.974 142.088 124.004 143.77C121.583 145.197 119.327 146.885 117.276 148.805C112.126 154.988 110.316 156.681 111.314 161.414C111.232 163.302 111.528 165.187 112.184 166.959C113.761 171.17 114.84 173.919 116.209 175.926C115.791 177.886 114.701 183.06 114.643 184.243C114.585 185.426 118.123 184.602 119.909 184.15C123.227 191.574 129.305 196.724 131.196 197.316C134.49 198.348 139.699 192.931 142.46 188.732C145.22 184.533 143.132 179.812 143.144 177.932C143.156 176.053 149.35 171.924 151.647 170.613C153.944 169.302 156.078 163.34 155.15 157.551Z" fill="white"/>
<g style="mix-blend-mode:multiply" opacity="0.5">
<path d="M111.36 161.414C111.278 163.302 111.574 165.187 112.23 166.959C113.808 171.17 114.886 173.919 116.255 175.926C115.838 177.886 114.747 183.06 114.689 184.243C114.631 185.426 118.169 184.602 119.956 184.15C123.273 191.574 129.352 196.724 131.242 197.316C134.537 198.348 139.745 192.931 142.506 188.732C143.196 187.684 143.644 186.495 143.817 185.252C143.666 184.707 143.562 184.37 143.562 184.37C143.562 184.37 142.007 190.344 138.922 189.567C135.836 188.79 131.115 182.607 128.482 180.473C125.848 178.338 126.927 175.531 126.405 172.353C125.883 169.174 118.088 166.379 117.566 164.558C117.044 162.736 118.865 155.196 118.865 155.196C118.865 155.196 121.823 151.252 121.185 152.876C120.734 154.285 120.571 155.769 120.704 157.241C120.838 158.714 121.266 160.145 121.962 161.449C122.451 162.478 123.227 163.344 124.196 163.943C125.166 164.541 126.287 164.848 127.426 164.824L130.256 150.8L124.282 145.858L117.322 148.758C112.126 154.988 110.351 156.681 111.36 161.414Z" fill="#CFB2DD"/>
</g>
<path d="M155.15 157.551C154.21 151.751 147.564 139.954 137.019 140.406C130.175 140.708 126.974 142.088 124.004 143.77C121.583 145.197 119.327 146.885 117.276 148.805C112.126 154.988 110.316 156.681 111.314 161.414C111.232 163.302 111.528 165.187 112.184 166.959C113.761 171.17 114.84 173.919 116.209 175.926C115.791 177.886 114.701 183.06 114.643 184.243C114.585 185.426 118.123 184.602 119.909 184.15C123.227 191.574 129.305 196.724 131.196 197.316C134.49 198.348 139.699 192.931 142.46 188.732C145.22 184.533 143.132 179.812 143.144 177.932C143.156 176.053 149.35 171.924 151.647 170.613C153.944 169.302 156.078 163.34 155.15 157.551Z" stroke="#263238" stroke-miterlimit="10"/>
<path d="M117.647 172.422L118.807 175.74C118.807 175.74 121.301 176.564 124.34 173.246" stroke="#263238" stroke-miterlimit="10" stroke-linecap="round"/>
<path d="M126.22 187.92C126.22 187.92 128.98 187.642 130.094 183.767" stroke="#263238" stroke-miterlimit="10" stroke-linecap="round"/>
<path d="M115.71 169.65C115.71 169.65 116.534 167.156 121.51 167.156" stroke="#263238" stroke-miterlimit="10" stroke-linecap="round"/>
<path d="M141.218 135.79C137.602 135.27 133.956 134.991 130.303 134.954C130.303 134.954 119.376 128.656 108.878 135.372C98.3796 142.088 103.426 153.851 103.426 156.786C103.426 159.72 100.062 159.732 102.161 163.514C104.261 167.295 111.36 165.207 111.36 165.207C111.435 163.781 111.812 162.387 112.466 161.117C113.12 159.847 114.036 158.731 115.153 157.841C118.935 154.906 121.951 154.268 123.204 155.115C123.204 155.115 122.368 161.414 123.621 163.931C123.621 163.931 127.82 166.031 129.085 166.031C130.349 166.031 128.261 167.806 132.449 169.383C133.212 169.657 134.028 169.751 134.833 169.656C135.638 169.561 136.41 169.281 137.089 168.838C137.704 166.286 139.049 162.446 141.555 163.34C145.232 164.65 148.584 173.698 143.608 176.784C149.594 177.874 156.844 167.284 157.273 157.632C157.702 147.981 147.436 136.88 141.218 135.79Z" fill="#263238"/>
<path d="M123.389 150.974C123.389 150.974 126.475 149.315 130.256 152.865C134.038 156.414 141.392 161.159 151.136 158.549" stroke="white" stroke-width="0.5" stroke-linecap="round" stroke-linejoin="round"/>
<path d="M122.96 148.132C122.96 148.132 125.083 144.814 128.632 144.814C132.182 144.814 140.476 149.791 147.1 149.791" stroke="white" stroke-width="0.5" stroke-linecap="round" stroke-linejoin="round"/>
<path d="M120.547 154.524C120.547 154.524 116.522 149.559 112.74 153.584C108.959 157.609 111.36 161.414 111.36 161.414" stroke="white" stroke-width="0.5" stroke-linecap="round" stroke-linejoin="round"/>
<path d="M104.458 157.841C106.765 155.761 108.199 152.885 108.472 149.791C108.947 144.582 116.058 140.082 120.547 144.35" stroke="white" stroke-width="0.5" stroke-linecap="round" stroke-linejoin="round"/>
<path d="M111.789 138.898C111.789 138.898 118.9 132.031 124.816 140.789" stroke="white" stroke-width="0.5" stroke-linecap="round" stroke-linejoin="round"/>
<path d="M169.662 476.54C169.662 476.54 174.035 483.337 173.548 487.71L173.072 492.084C173.072 492.084 157.029 496.48 153.63 496.48C150.232 496.48 132.24 494.775 132.24 494.775L131.463 491.689C131.408 491.461 131.434 491.222 131.535 491.01C131.637 490.799 131.808 490.629 132.02 490.529L148.062 483.047L153.12 477.514L169.662 476.54Z" fill="white" stroke="#263238" stroke-width="1.00396" stroke-miterlimit="10"/>
<path d="M156.066 493.058C160.416 493.394 168.676 490.738 173.466 489.044L173.13 492.084C173.13 492.084 157.029 496.48 153.63 496.48C150.232 496.48 132.24 494.775 132.24 494.775L131.683 492.571C134.56 492.582 150.313 492.617 156.066 493.058Z" fill="#CFB2DD" stroke="#263238" stroke-width="1.00396" stroke-miterlimit="10"/>
<path d="M148.086 483.047L124.735 493.209C124.735 493.209 122.74 498.208 124.735 499.206C126.73 500.204 170.23 499.206 170.23 499.206C170.23 499.206 173.234 491.306 168.49 486.005C163.746 480.704 148.086 483.047 148.086 483.047Z" fill="white" stroke="#263238" stroke-width="1.00396" stroke-miterlimit="10"/>
<path d="M170.23 499.206C170.23 499.206 126.73 500.204 124.735 499.206C123.772 498.719 123.737 497.315 123.958 495.981H170.996C170.842 497.078 170.586 498.157 170.23 499.206Z" fill="#CFB2DD" stroke="#263238" stroke-width="1.00396" stroke-miterlimit="10"/>
<path d="M137.042 306.484C137.042 306.484 130.941 333.523 128.632 350.436C126.324 367.349 124.967 401.232 125.454 405.118C125.941 409.004 150.232 474.115 150.232 474.115L152.656 479.915L169.662 476.516C169.662 476.516 161.89 451.739 158.978 438.132C156.066 424.525 149.698 402.172 149.698 398.286C149.698 394.4 164.778 320.183 165.857 315.311C166.936 310.439 171.831 302.957 171.831 302.957L139.27 302.296L137.042 306.484Z" fill="#CFB2DD" stroke="#263238" stroke-width="1.00396" stroke-miterlimit="10"/>
<path d="M137.042 306.484C137.042 306.484 133.47 331.18 134.943 348.348C136.416 365.516 139.583 402.068 139.583 407.508C139.583 412.948 148.364 445.44 148.863 455.648C149.64 470.392 148.55 477.688 148.55 477.688L148.028 483.036C148.028 483.036 158.27 484.497 160.509 485.135C163.095 485.801 165.764 486.09 168.432 485.994C168.432 485.994 172.156 469.603 172.156 455.636C172.156 441.67 169.058 412.925 167.516 401.279C165.973 389.632 170.833 344.706 173.594 336.319C176.355 327.932 182.387 310.172 178.327 301.101C174.267 292.03 137.042 306.484 137.042 306.484Z" fill="#CFB2DD" stroke="#263238" stroke-width="1.00396" stroke-miterlimit="10"/>
<path d="M182.839 296.554L182.468 307.597C182.468 307.597 175.856 308.908 166.947 310.451C159.593 311.727 141.126 310.114 134.908 309.511C134.341 309.461 133.818 309.189 133.45 308.755C133.083 308.32 132.903 307.758 132.948 307.191L133.551 297.215L182.839 296.554Z" fill="#263238"/>
<path d="M156.994 186.47C156.994 186.47 146.554 197.757 142.622 204.775C138.69 211.793 137.135 222.546 135.662 231.014C134.189 239.482 138.179 259.364 137.054 268.494L133.493 297.25C133.493 297.25 132.727 299.199 135.291 301.333C137.854 303.468 150.371 304.245 161.681 304.813C165.81 305.022 178.141 302.366 180.16 302.238C182.596 302.087 182.677 298.99 182.781 296.554C183.268 285.105 185.333 254.585 186.69 241.292C189.486 214.182 174.186 188.013 156.994 186.47Z" fill="white" stroke="#263238" stroke-width="1.00396" stroke-miterlimit="10"/>
<g style="mix-blend-mode:multiply">
<path d="M185.414 256.708C185.878 250.688 186.342 245.224 186.748 241.292C186.864 240.132 186.934 238.972 186.992 237.812L159.256 242.452L135.43 234.332C135.433 239.262 135.711 244.188 136.265 249.087L159.639 255.629L185.414 256.708Z" fill="#CFB2DD"/>
</g>
<g style="mix-blend-mode:multiply">
<path d="M155.962 187.607C154.384 189.358 151.252 192.92 148.271 196.701L165.88 214.6L171.68 212.28L155.962 187.607Z" fill="#CFB2DD"/>
</g>
<path d="M156.994 186.47C156.994 186.47 146.554 197.757 142.622 204.775C141.456 206.908 140.511 209.154 139.803 211.48L160.799 187.224C159.559 186.848 158.284 186.596 156.994 186.47Z" fill="#263238"/>
<g style="mix-blend-mode:multiply">
<path d="M136.474 226.444L159.256 233.937L186.922 230.759C186.489 223.867 184.958 217.088 182.387 210.679L160.08 219.623L140.14 210.586C138.509 215.769 137.284 221.071 136.474 226.444Z" fill="#CFB2DD"/>
</g>
<g style="mix-blend-mode:multiply">
<path d="M175.694 285.105C164.138 287.045 152.282 286.076 141.195 282.286L135.639 280.384L133.91 294.304L140.244 296.078C152.284 299.445 164.869 300.414 177.283 298.932L182.398 298.317C182.665 297.754 182.815 297.142 182.839 296.519C182.978 293.422 183.222 288.921 183.535 283.759L175.694 285.105Z" fill="#CFB2DD"/>
</g>
<g style="mix-blend-mode:multiply">
<path d="M178.791 266.15C167.235 268.098 155.376 267.125 144.292 263.32L137.216 260.896C137.392 263.423 137.357 265.96 137.112 268.482L136.288 275.175L143.341 277.147C155.377 280.517 167.958 281.491 180.368 280.012L183.848 279.595C184.138 274.955 184.475 270.013 184.834 265.13L178.791 266.15Z" fill="#CFB2DD"/>
</g>
<path d="M69.9611 217.096L92.3901 235.13L93.3569 233.927L70.9278 215.894L69.9611 217.096Z" fill="#263238"/>
<path d="M167.794 198.986C167.794 198.986 176.018 204.589 176.204 217.825C176.285 223.625 175.682 229.042 174.348 238.542C173.014 248.043 164.732 278.98 158.282 282.738C151.832 286.497 141.822 279.398 141.822 279.398L93.4032 247.254L81.6988 237.8L75.8988 226.85L77.72 223.37L91.9996 234.32L84.3088 227.209L85.8168 225.295L88.6008 227.232L96.7208 230.272L98.4956 241.872L101.001 243.588L147.32 260.513C147.32 260.513 146.74 235.584 147.169 230.817C147.598 226.049 148.19 214.066 153.294 205.378" fill="white"/>
<g style="mix-blend-mode:multiply" opacity="0.5">
<path d="M146.995 241.674C146.995 250.282 147.285 260.513 147.285 260.513L101.013 243.658L98.5072 241.941L96.7324 230.341L88.6124 227.302L85.84 225.33L84.332 227.244L91.9996 234.32L77.72 223.37L75.9916 226.792L81.7916 237.742L93.496 247.254L96.4424 249.214L160.416 269.828L146.995 241.674Z" fill="#CFB2DD"/>
</g>
<path d="M167.794 198.986C167.794 198.986 176.018 204.589 176.204 217.825C176.285 223.625 175.682 229.042 174.348 238.542C173.014 248.043 164.732 278.98 158.282 282.738C151.832 286.497 141.822 279.398 141.822 279.398L93.4032 247.254L81.6988 237.8L75.8988 226.85L77.72 223.37L91.9996 234.32L84.3088 227.209L85.8168 225.295L88.6008 227.232L96.7208 230.272L98.4956 241.872L101.001 243.588L147.32 260.513C147.32 260.513 146.74 235.584 147.169 230.817C147.598 226.049 148.19 214.066 153.294 205.378" stroke="#263238" stroke-width="1.00396" stroke-miterlimit="10"/>
<path d="M147.32 260.513L164.998 273.273L169.58 265.153C169.58 265.153 172.747 262.659 173.211 260.78C173.675 258.9 173.084 255.85 173.559 253.97C174.035 252.091 176.401 250.328 176.622 245.781C176.842 241.234 176.622 237.44 176.622 237.44C176.622 237.44 180.45 221.699 180.032 214.855C179.614 208.011 173.014 195.912 167.724 195.646C162.435 195.379 155.556 196.179 150.22 204.253C144.884 212.326 145.974 235.898 145.139 237.371C144.304 238.844 145.464 246.117 145.464 246.117C145 246.463 144.616 246.904 144.336 247.41C144.056 247.916 143.887 248.476 143.84 249.052C143.747 250.943 145.789 255.594 145.789 255.594L147.32 260.513Z" fill="white" stroke="#263238" stroke-width="1.00396" stroke-miterlimit="10"/>
<g style="mix-blend-mode:multiply">
<path d="M145.603 231.316C145.64 233.34 145.488 235.363 145.151 237.359C144.408 238.682 145.255 244.656 145.441 245.874C155.384 248.962 165.898 249.755 176.192 248.194C176.414 247.387 176.546 246.558 176.587 245.723C176.819 241.187 176.587 237.382 176.587 237.382C176.587 237.382 176.923 235.979 177.387 233.844C166.726 234.522 156.023 233.671 145.603 231.316Z" fill="#CFB2DD"/>
</g>
<g style="mix-blend-mode:multiply">
<path d="M149.501 205.54C147.842 208.87 146.914 213.869 146.38 218.938C156.911 222.957 168.265 224.339 179.452 222.964C179.898 220.281 180.096 217.563 180.044 214.844C179.843 212.694 179.335 210.585 178.536 208.58C168.767 208.808 159.01 207.786 149.501 205.54Z" fill="#CFB2DD"/>
</g>
<path d="M145.789 255.722L147.285 260.513L164.964 273.273L169.546 265.153C169.546 265.153 172.712 262.659 173.176 260.78C173.259 260.453 173.31 260.119 173.327 259.782C164.011 259.621 154.755 258.256 145.789 255.722Z" fill="#263238"/>
<path d="M158.584 484.984C158.584 484.984 158.978 474.939 160.904 460.253C162.829 445.568 158.201 424.711 157.424 421.231C156.646 417.751 157.818 410.025 157.041 407.311C156.264 404.596 152.505 393.02 154.721 379.587C156.936 366.154 158.734 330.646 158.734 330.646C158.734 330.646 153.155 326.111 151.519 320.206C149.884 314.302 151.136 312.446 151.136 312.446" stroke="#263238" stroke-width="1.00396" stroke-miterlimit="10"/>
<path d="M161.17 312.991L159.024 324.87" stroke="#263238" stroke-width="1.00396" stroke-miterlimit="10"/>
</svg>
