<svg width="48" height="23" viewBox="0 0 48 23" fill="none" xmlns="http://www.w3.org/2000/svg">
<circle cx="42.9944" cy="5.00559" r="5.00559" fill="#2656D1"/>
<path fill-rule="evenodd" clip-rule="evenodd" d="M40.0739 12.4837C37.9363 11.704 36.3282 9.82327 35.9358 7.52773L33.6516 16.8857H33.4891L30.97 6.56578H25.0787L30.32 22.1676H36.8207L40.0739 12.4837ZM5.64754 1.36517V22.1676H0V1.36517H5.64754ZM14.0122 13.3916V22.1676H8.40528V6.56578H13.7278V9.53176H13.8903C14.2289 8.5431 14.8248 7.76775 15.678 7.2057C16.538 6.64366 17.5402 6.36264 18.6846 6.36264C19.7884 6.36264 20.7466 6.61657 21.5592 7.12444C22.3785 7.62554 23.0117 8.31625 23.4586 9.19656C23.9123 10.0769 24.1358 11.0825 24.129 12.2133V22.1676H18.5221V13.3916C18.5289 12.6196 18.3325 12.0136 17.933 11.5734C17.5402 11.1332 16.9917 10.9132 16.2875 10.9132C15.827 10.9132 15.4241 11.0147 15.0787 11.2179C14.7401 11.4143 14.4794 11.6987 14.2966 12.0711C14.1138 12.4368 14.019 12.8769 14.0122 13.3916Z" fill="#1D2128"/>
</svg>
