<svg width="29" height="29" viewBox="0 0 29 29" fill="none" xmlns="http://www.w3.org/2000/svg">
<path d="M10.1542 13.0009C9.70694 13.0009 9.37133 12.8018 9.14733 12.4036C8.92411 12.0046 8.92917 11.6106 9.1625 11.2217L13.5083 4.13424C13.7417 3.7648 14.0722 3.58008 14.5 3.58008C14.9278 3.58008 15.2583 3.7648 15.4917 4.13424L19.8375 11.2217C20.0708 11.6106 20.0755 12.0046 19.8515 12.4036C19.6283 12.8018 19.2931 13.0009 18.8458 13.0009H10.1542ZM20.9167 25.8342C19.4583 25.8342 18.2186 25.324 17.1973 24.3036C16.1769 23.2824 15.6667 22.0426 15.6667 20.5842C15.6667 19.1259 16.1769 17.8861 17.1973 16.8649C18.2186 15.8445 19.4583 15.3342 20.9167 15.3342C22.375 15.3342 23.6148 15.8445 24.636 16.8649C25.6564 17.8861 26.1667 19.1259 26.1667 20.5842C26.1667 22.0426 25.6564 23.2824 24.636 24.3036C23.6148 25.324 22.375 25.8342 20.9167 25.8342ZM5.16667 25.2509C4.83611 25.2509 4.55922 25.1389 4.336 24.9149C4.112 24.6917 4 24.4148 4 24.0842V17.0842C4 16.7537 4.112 16.4764 4.336 16.2524C4.55922 16.0292 4.83611 15.9176 5.16667 15.9176H12.1667C12.4972 15.9176 12.7745 16.0292 12.9985 16.2524C13.2217 16.4764 13.3333 16.7537 13.3333 17.0842V24.0842C13.3333 24.4148 13.2217 24.6917 12.9985 24.9149C12.7745 25.1389 12.4972 25.2509 12.1667 25.2509H5.16667Z" fill="white"/>
</svg>
