<svg width="28" height="28" viewBox="0 0 28 28" fill="none" xmlns="http://www.w3.org/2000/svg">
<path d="M17.8792 18.9875C17.6653 18.7347 17.5583 18.4477 17.5583 18.1265C17.5583 17.8061 17.6653 17.5389 17.8792 17.325L20.0375 15.1667H11.6667C11.3361 15.1667 11.0592 15.0547 10.836 14.8307C10.612 14.6074 10.5 14.3306 10.5 14C10.5 13.6694 10.612 13.3922 10.836 13.1682C11.0592 12.9449 11.3361 12.8333 11.6667 12.8333H20.0375L17.8792 10.675C17.6458 10.4417 17.5292 10.1648 17.5292 9.84433C17.5292 9.52311 17.6458 9.24583 17.8792 9.0125C18.0931 8.77917 18.3606 8.6625 18.6818 8.6625C19.0023 8.6625 19.2694 8.76944 19.4833 8.98333L23.6833 13.1833C23.8 13.3 23.8828 13.4264 23.9318 13.5625C23.9801 13.6986 24.0042 13.8444 24.0042 14C24.0042 14.1556 23.9801 14.3014 23.9318 14.4375C23.8828 14.5736 23.8 14.7 23.6833 14.8167L19.4833 19.0167C19.2306 19.2694 18.9537 19.3811 18.6527 19.3515C18.3509 19.3227 18.0931 19.2014 17.8792 18.9875ZM5.83333 24.5C5.19167 24.5 4.64217 24.2717 4.18483 23.8152C3.72828 23.3578 3.5 22.8083 3.5 22.1667V5.83333C3.5 5.19167 3.72828 4.64217 4.18483 4.18483C4.64217 3.72828 5.19167 3.5 5.83333 3.5H12.8333C13.1639 3.5 13.4412 3.61161 13.6652 3.83483C13.8884 4.05883 14 4.33611 14 4.66667C14 4.99722 13.8884 5.27411 13.6652 5.49733C13.4412 5.72133 13.1639 5.83333 12.8333 5.83333H5.83333V22.1667H12.8333C13.1639 22.1667 13.4412 22.2787 13.6652 22.5027C13.8884 22.7259 14 23.0028 14 23.3333C14 23.6639 13.8884 23.9408 13.6652 24.164C13.4412 24.388 13.1639 24.5 12.8333 24.5H5.83333Z" fill="white"/>
</svg>
