<svg width="29" height="29" viewBox="0 0 29 29" fill="none" xmlns="http://www.w3.org/2000/svg">
<path d="M12.1666 14.1676C10.8833 14.1676 9.7847 13.7106 8.87081 12.7967C7.95692 11.8828 7.49998 10.7842 7.49998 9.5009C7.49998 8.21756 7.95692 7.11895 8.87081 6.20506C9.7847 5.29117 10.8833 4.83423 12.1666 4.83423C13.45 4.83423 14.5486 5.29117 15.4625 6.20506C16.3764 7.11895 16.8333 8.21756 16.8333 9.5009C16.8333 10.7842 16.3764 11.8828 15.4625 12.7967C14.5486 13.7106 13.45 14.1676 12.1666 14.1676ZM3.99998 23.5009C3.66942 23.5009 3.39254 23.3889 3.16931 23.1649C2.94531 22.9417 2.83331 22.6648 2.83331 22.3342V20.2342C2.83331 19.5926 2.99859 18.9898 3.32915 18.4259C3.6597 17.862 4.11665 17.4342 4.69998 17.1426C5.69165 16.637 6.8097 16.2092 8.05415 15.8592C9.29859 15.5092 10.6694 15.3342 12.1666 15.3342H12.575C12.6916 15.3342 12.8083 15.3537 12.925 15.3926C12.7694 15.7426 12.638 16.1073 12.5306 16.4869C12.4241 16.8657 12.3416 17.2592 12.2833 17.6676C12.1861 18.3676 12.1569 18.9556 12.1958 19.4316C12.2347 19.9083 12.3416 20.487 12.5166 21.1676C12.6333 21.5759 12.7889 21.9796 12.9833 22.3786C13.1778 22.7768 13.3916 23.1509 13.625 23.5009H3.99998ZM20.3333 21.1676C20.975 21.1676 21.5245 20.9393 21.9818 20.4827C22.4384 20.0254 22.6666 19.4759 22.6666 18.8342C22.6666 18.1926 22.4384 17.6431 21.9818 17.1857C21.5245 16.7292 20.975 16.5009 20.3333 16.5009C19.6916 16.5009 19.1425 16.7292 18.686 17.1857C18.2286 17.6431 18 18.1926 18 18.8342C18 19.4759 18.2286 20.0254 18.686 20.4827C19.1425 20.9393 19.6916 21.1676 20.3333 21.1676ZM18.8166 22.9176C18.5833 22.8203 18.3644 22.7185 18.1598 22.6119C17.956 22.5046 17.7472 22.3731 17.5333 22.2176L16.2791 22.5967C16.143 22.6356 16.0166 22.6306 15.9 22.5816C15.7833 22.5333 15.6861 22.4509 15.6083 22.3342L14.9083 21.1676C14.8305 21.0509 14.8064 20.9245 14.836 20.7884C14.8648 20.6523 14.9375 20.5356 15.0541 20.4384L16.0166 19.5926C15.9778 19.3203 15.9583 19.0676 15.9583 18.8342C15.9583 18.6009 15.9778 18.3481 16.0166 18.0759L15.0541 17.2301C14.9375 17.1328 14.8648 17.0162 14.836 16.8801C14.8064 16.7439 14.8305 16.6176 14.9083 16.5009L15.6083 15.3342C15.6861 15.2176 15.7833 15.1347 15.9 15.0857C16.0166 15.0375 16.143 15.0328 16.2791 15.0717L17.5333 15.4509C17.7472 15.2953 17.956 15.1639 18.1598 15.0566C18.3644 14.95 18.5833 14.8481 18.8166 14.7509L19.0791 13.4676C19.118 13.3315 19.1861 13.2198 19.2833 13.1327C19.3805 13.0448 19.4972 13.0009 19.6333 13.0009H21.0333C21.1694 13.0009 21.2861 13.0448 21.3833 13.1327C21.4805 13.2198 21.5486 13.3315 21.5875 13.4676L21.85 14.7509C22.0833 14.8481 22.3023 14.9551 22.5068 15.0717C22.7106 15.1884 22.9194 15.3342 23.1333 15.5092L24.3583 15.0717C24.4944 15.0134 24.6259 15.0134 24.7526 15.0717C24.8786 15.1301 24.9805 15.2176 25.0583 15.3342L25.7583 16.5592C25.8361 16.6759 25.8653 16.8023 25.8458 16.9384C25.8264 17.0745 25.7583 17.1912 25.6416 17.2884L24.65 18.1342C24.6889 18.3676 24.7083 18.6106 24.7083 18.8634C24.7083 19.1162 24.6889 19.3592 24.65 19.5926L25.6125 20.4384C25.7291 20.5356 25.8019 20.6523 25.8306 20.7884C25.8602 20.9245 25.8361 21.0509 25.7583 21.1676L25.0583 22.3342C24.9805 22.4509 24.8833 22.5333 24.7666 22.5816C24.65 22.6306 24.5236 22.6356 24.3875 22.5967L23.1333 22.2176C22.9194 22.3731 22.7106 22.5046 22.5068 22.6119C22.3023 22.7185 22.0833 22.8203 21.85 22.9176L21.5875 24.2009C21.5486 24.337 21.4805 24.4486 21.3833 24.5357C21.2861 24.6236 21.1694 24.6676 21.0333 24.6676H19.6333C19.4972 24.6676 19.3805 24.6236 19.2833 24.5357C19.1861 24.4486 19.118 24.337 19.0791 24.2009L18.8166 22.9176Z" fill="white"/>
</svg>
