<svg width="580" height="580" viewBox="0 0 580 580" fill="none" xmlns="http://www.w3.org/2000/svg">
<path opacity="0.7" d="M78.7988 193.824C78.7988 193.824 46.458 277.344 91.9068 361.444C137.356 445.544 230.968 489.972 305.892 527.962C380.816 565.952 458.618 547.45 495.587 485.228C532.556 423.006 481.852 378.589 481.783 289.861C481.713 201.132 495.065 177.642 446.983 102.683C398.901 27.724 281.033 11.1244 191.899 66.7232C102.764 122.322 78.7988 193.824 78.7988 193.824Z" fill="white"/>
<path d="M71.0616 213.974C114.933 170.114 152.088 206.909 167.748 148.016C203.104 14.9756 349.752 16.24 369.031 110.908C403.773 281.428 555.095 173.142 553.97 295.266C552.81 425.662 456.878 527.266 284.85 537.37C130.72 546.476 -1.6356 286.648 71.0616 213.974Z" fill="#608AF3"/>
<path opacity="0.7" d="M71.0616 213.974C114.933 170.114 152.088 206.909 167.748 148.016C203.104 14.9756 349.752 16.24 369.031 110.908C403.773 281.428 555.095 173.142 553.97 295.266C552.81 425.662 456.878 527.266 284.85 537.37C130.72 546.476 -1.6356 286.648 71.0616 213.974Z" fill="white"/>
<path d="M179.916 139.2C179.638 136.88 180.693 135.384 182.955 135.117C185.217 134.85 186.586 136.022 186.864 138.388L187.758 145.94C188.024 148.26 186.969 149.756 184.707 150.023C182.445 150.29 181.076 149.118 180.798 146.752L179.916 139.2ZM183.106 146.647C183.234 147.668 183.709 148.039 184.463 147.958C185.217 147.877 185.623 147.39 185.472 146.369L184.556 138.492C184.428 137.472 183.918 137.1 183.199 137.193C182.48 137.286 182.039 137.75 182.19 138.771L183.106 146.647ZM192.038 134.224L194.172 133.968L187.804 158.004L185.67 158.259L192.038 134.224ZM192.282 146.276C192.003 143.956 193.07 142.448 195.332 142.193C197.594 141.938 198.963 143.098 199.242 145.452L200.123 153.004C200.402 155.324 199.346 156.82 197.072 157.087C194.799 157.354 193.442 156.182 193.163 153.816L192.282 146.276ZM195.483 153.712C195.599 154.732 196.075 155.115 196.829 155.022C197.583 154.93 197.989 154.454 197.85 153.433L196.922 145.557C196.806 144.548 196.295 144.176 195.576 144.258C194.857 144.339 194.416 144.826 194.567 145.835L195.483 153.712Z" fill="#263238"/>
<path d="M205.506 162.307L178.64 165.451C178.029 165.523 177.415 165.349 176.932 164.969C176.449 164.588 176.137 164.031 176.065 163.421L172.84 135.72C172.783 135.205 172.842 134.683 173.013 134.193C173.183 133.704 173.461 133.258 173.826 132.89L185.032 121.858C185.571 121.323 186.275 120.984 187.03 120.896C187.785 120.807 188.547 120.975 189.196 121.371L202.64 129.491C203.083 129.76 203.459 130.126 203.738 130.563C204.018 130.999 204.194 131.493 204.253 132.008L207.501 159.709C207.58 160.318 207.414 160.933 207.04 161.42C206.666 161.907 206.114 162.226 205.506 162.307V162.307Z" stroke="#263238" stroke-linecap="round" stroke-linejoin="round"/>
<path d="M189.266 124.932C189.307 125.272 189.247 125.617 189.092 125.923C188.937 126.229 188.695 126.482 188.396 126.65C188.097 126.817 187.755 126.892 187.413 126.865C187.071 126.838 186.745 126.71 186.476 126.497C186.208 126.284 186.008 125.996 185.904 125.669C185.799 125.343 185.794 124.992 185.889 124.663C185.984 124.334 186.175 124.04 186.438 123.819C186.7 123.599 187.022 123.461 187.363 123.424C187.815 123.372 188.27 123.501 188.627 123.784C188.983 124.067 189.213 124.48 189.266 124.932V124.932Z" stroke="#263238" stroke-linecap="round" stroke-linejoin="round"/>
<path d="M187.56 105.56C187.56 105.56 192.804 125.744 187.56 125.164" stroke="#263238" stroke-linecap="round" stroke-linejoin="round"/>
<path d="M186.226 121.104C187.247 115.49 192.386 106.024 192.386 106.024" stroke="#263238" stroke-linecap="round" stroke-linejoin="round"/>
<path d="M187.56 125.129C187.254 125.11 186.961 124.995 186.722 124.802C186.483 124.609 186.31 124.346 186.226 124.05" stroke="#263238" stroke-linecap="round" stroke-linejoin="round"/>
<path d="M210.958 113.019C215.66 116.819 219.264 121.804 221.398 127.461" stroke="#263238" stroke-linecap="round" stroke-linejoin="round"/>
<path d="M156.658 130.929C158.006 125.744 160.559 120.95 164.111 116.938C167.662 112.926 172.111 109.809 177.095 107.842C182.078 105.874 187.456 105.112 192.79 105.617C198.125 106.121 203.264 107.878 207.791 110.745" stroke="#263238" stroke-linecap="round" stroke-linejoin="round"/>
<path d="M167.249 165.126C161.115 159.801 157.101 152.448 155.939 144.408" stroke="#263238" stroke-linecap="round" stroke-linejoin="round"/>
<path d="M188.256 173.478C182.051 173.23 176.032 171.284 170.856 167.852" stroke="#263238" stroke-linecap="round" stroke-linejoin="round"/>
<path d="M223.242 134.56C224.55 143.486 222.258 152.566 216.872 159.804C211.486 167.041 203.446 171.843 194.52 173.153" stroke="#263238" stroke-linecap="round" stroke-linejoin="round"/>
<path d="M103.484 247.748L146.194 256.028L141.22 281.686C141.123 282.186 140.831 282.628 140.408 282.913C139.986 283.198 139.467 283.304 138.967 283.207L100.02 275.656C99.5194 275.559 99.0779 275.267 98.7926 274.845C98.5073 274.422 98.4016 273.904 98.4986 273.403L103.473 247.745L103.484 247.748Z" stroke="#263238" stroke-width="0.998248" stroke-linecap="round" stroke-linejoin="round"/>
<path d="M147.68 256.613L102.722 247.948L104.039 241.114C104.136 240.612 104.428 240.17 104.851 239.883C105.274 239.597 105.793 239.491 106.295 239.587L147.516 247.533C148.002 247.638 148.427 247.928 148.705 248.34C148.982 248.752 149.089 249.256 149.004 249.745L147.686 256.579L147.68 256.613Z" stroke="#263238" stroke-linecap="round" stroke-linejoin="round"/>
<path d="M129.999 244.119L123.883 242.941L116.875 279.298L122.991 280.477L129.999 244.119Z" stroke="#263238" stroke-linecap="round" stroke-linejoin="round"/>
<path d="M126.939 243.53C126.939 243.53 137.553 235.782 142.46 238.125C147.366 240.468 144.942 246.999 142.46 246.523" stroke="#263238" stroke-linecap="round" stroke-linejoin="round"/>
<path d="M131.138 244.331C131.138 244.331 139.768 240.039 141.021 242.011C142.274 243.983 138.55 245.804 135.685 245.247" stroke="#263238" stroke-linecap="round" stroke-linejoin="round"/>
<path d="M127.229 242.997C127.229 242.997 131.706 234.877 131.126 232.255H134.108C134.108 232.255 135.082 235.341 131.602 240.619" stroke="#263238" stroke-linecap="round" stroke-linejoin="round"/>
<path d="M126.939 243.53C126.939 243.53 119.979 232.394 114.538 232.754C109.098 233.114 108.947 240.062 111.418 240.538" stroke="#263238" stroke-linecap="round" stroke-linejoin="round"/>
<path d="M122.74 242.718C122.74 242.718 116.325 235.515 114.434 236.86C112.543 238.206 115.327 241.292 118.192 241.837" stroke="#263238" stroke-linecap="round" stroke-linejoin="round"/>
<path d="M126.869 242.927C126.869 242.927 125.709 233.705 127.252 231.513L124.468 230.353C124.468 230.353 122.426 232.858 123.702 239.053" stroke="#263238" stroke-linecap="round" stroke-linejoin="round"/>
<path d="M158.526 230.492C163.308 236.534 166.395 243.741 167.469 251.372" stroke="#263238" stroke-linecap="round" stroke-linejoin="round"/>
<path d="M85.84 237.452C88.9835 231.375 93.5181 226.126 99.0744 222.133C104.631 218.14 111.052 215.516 117.814 214.475C124.577 213.433 131.49 214.004 137.99 216.14C144.49 218.277 150.393 221.918 155.22 226.768" stroke="#263238" stroke-linecap="round" stroke-linejoin="round"/>
<path d="M89.32 283.04C83.1907 274.671 80.2682 264.381 81.084 254.04" stroke="#263238" stroke-linecap="round" stroke-linejoin="round"/>
<path d="M113.181 299.361C105.504 297.311 98.5409 293.185 93.0552 287.436" stroke="#263238" stroke-linecap="round" stroke-linejoin="round"/>
<path d="M167.748 260.768C166.856 272.254 161.439 282.915 152.687 290.407C143.936 297.899 132.567 301.608 121.081 300.718" stroke="#263238" stroke-linecap="round" stroke-linejoin="round"/>
<path d="M339.567 145.104L335.924 143.248C336.465 141.649 336.647 139.95 336.458 138.272C337.618 138.829 338.848 139.432 339.938 139.931C339.88 141.427 339.787 143.19 339.567 145.104Z" stroke="#263238" stroke-linecap="round" stroke-linejoin="round"/>
<path d="M344.868 142.32C346.022 142.909 347.258 143.323 348.534 143.55C349.87 150.682 348.822 158.056 345.552 164.534C344.613 166.367 334.741 161.31 335.669 159.477C337.784 154.945 339.103 150.084 339.567 145.104C339.787 143.19 339.915 141.427 339.973 139.931C342.038 140.905 343.847 141.798 344.868 142.32Z" stroke="#263238" stroke-linecap="round" stroke-linejoin="round"/>
<path d="M356.642 119.318C359.396 120.726 361.554 123.077 362.723 125.941C363.891 128.806 363.993 131.995 363.01 134.928C362.027 137.862 360.025 140.345 357.366 141.927C354.707 143.509 351.569 144.085 348.522 143.55C347.246 143.323 346.011 142.909 344.856 142.32C343.836 141.798 342.026 140.905 339.961 139.931C338.801 139.386 337.641 138.829 336.481 138.272C333.628 136.961 330.867 135.755 329.44 135.291L341.922 110.931C344.52 112.833 353.719 117.821 356.642 119.318Z" stroke="#263238" stroke-linecap="round" stroke-linejoin="round"/>
<path d="M329.8 99.4004C333.296 103.763 337.366 107.634 341.898 110.908L329.417 135.268C324.106 133.528 318.585 132.51 313.003 132.24L308.166 131.985L326.726 95.642L329.8 99.4004Z" stroke="#263238" stroke-linecap="round" stroke-linejoin="round"/>
<path d="M302.54 132.994L324.301 90.48C324.469 90.159 324.757 89.9171 325.102 89.8064C325.447 89.6957 325.822 89.7252 326.146 89.8884L327.746 90.712C328.069 90.8782 328.314 91.1651 328.427 91.5103C328.54 91.8556 328.512 92.2315 328.35 92.5564L326.76 95.6536L308.2 131.996L306.623 135.094C306.541 135.254 306.428 135.396 306.291 135.512C306.153 135.629 305.995 135.717 305.823 135.772C305.652 135.827 305.471 135.847 305.292 135.832C305.113 135.818 304.938 135.768 304.778 135.685L303.166 134.862C302.999 134.784 302.849 134.673 302.726 134.536C302.604 134.398 302.51 134.237 302.451 134.062C302.393 133.888 302.37 133.703 302.385 133.519C302.401 133.335 302.453 133.157 302.54 132.994V132.994Z" stroke="#263238" stroke-linecap="round" stroke-linejoin="round"/>
<path d="M303.189 106.488L294.802 102.196" stroke="#263238" stroke-linecap="round" stroke-linejoin="round"/>
<path d="M313.014 93.032L307.725 83.7752" stroke="#263238" stroke-linecap="round" stroke-linejoin="round"/>
<path d="M298.027 122.322L287.436 123.447" stroke="#263238" stroke-linecap="round" stroke-linejoin="round"/>
<path d="M368.138 82.2788C360.816 75.4967 351.812 70.7985 342.061 68.672" stroke="#263238" stroke-linecap="round" stroke-linejoin="round"/>
<path d="M351.898 175.16C360.033 171.717 367.24 166.402 372.933 159.648C378.626 152.893 382.645 144.891 384.662 136.29C386.678 127.69 386.636 118.735 384.539 110.154C382.442 101.573 378.348 93.6078 372.592 86.9072" stroke="#263238" stroke-linecap="round" stroke-linejoin="round"/>
<path d="M293.538 166.1C303.698 174.833 316.657 179.625 330.055 179.603" stroke="#263238" stroke-linecap="round" stroke-linejoin="round"/>
<path d="M274.92 133.794C276.795 143.889 281.414 153.273 288.272 160.915" stroke="#263238" stroke-linecap="round" stroke-linejoin="round"/>
<path d="M330.055 67.3728C315.171 67.3728 300.896 73.2855 290.371 83.8102C279.847 94.3349 273.934 108.609 273.934 123.494" stroke="#263238" stroke-linecap="round" stroke-linejoin="round"/>
<path d="M230.666 213.846C225.956 209.635 221.073 211.526 218.579 212.953C218.08 210.099 216.259 205.181 210.041 204.346C203.244 203.441 197.676 210.064 199.497 219.298C200.819 225.945 205.065 232.058 207.338 234.9C207.605 235.248 207.86 235.55 208.069 235.793H209.229C212.895 235.642 220.272 234.912 226.165 231.594C234.32 226.954 235.77 218.416 230.666 213.846Z" stroke="#263238" stroke-linecap="round" stroke-linejoin="round"/>
<path d="M204.218 240.12C204.218 240.12 203.905 240.688 203.476 241.686" stroke="#263238" stroke-linecap="round" stroke-linejoin="round"/>
<path d="M202.292 244.922C200.436 250.989 199.16 261.383 209.044 267.682C233.473 283.26 241.698 246.512 222.964 249.818C210.099 252.138 223.706 286.137 243.844 279.282" stroke="#263238" stroke-linecap="round" stroke-linejoin="round" stroke-dasharray="2.98 2.98"/>
<path d="M245.526 278.644C246.036 278.412 246.558 278.156 247.08 277.878" stroke="#263238" stroke-linecap="round" stroke-linejoin="round"/>
<path d="M215.4 503.162C215.4 503.162 201.608 512.546 196.052 511.92C195.441 511.888 194.862 511.642 194.416 511.224C190.797 507.488 187.885 500.923 187.885 500.923C187.885 500.923 189.614 498.533 194.938 504.878L198.314 501.781L191.354 494.752C191.354 494.752 195.286 491.631 201.968 495.61C201.736 495.123 197.432 485.75 200.68 472.99L184.44 457.318L198.847 444.767L200.007 443.793C200.007 443.793 200.912 444.686 202.327 446.113C203.742 447.54 205.703 449.256 207.826 451.124C212.906 455.59 219.054 460.404 221.746 460.404C226.594 460.242 215.4 503.162 215.4 503.162Z" fill="white"/>
<path opacity="0.4" d="M204.74 497.014C204.74 497.014 196.875 505.134 196.052 511.92C195.441 511.888 194.862 511.642 194.416 511.224C190.797 507.488 187.885 500.923 187.885 500.923C187.885 500.923 189.614 498.533 194.938 504.878L198.314 501.781L191.354 494.752C191.354 494.752 195.286 491.631 201.968 495.61C201.736 495.123 197.432 485.75 200.68 472.99L184.44 457.318L198.847 444.767L202.327 446.078C203.754 447.424 205.703 449.222 207.826 451.089C204.775 455.555 198.244 464.8 198.244 464.8L203.893 472.456C203.893 472.456 200.413 491.759 204.74 497.014Z" fill="#608AF3"/>
<path d="M215.4 503.162C215.4 503.162 201.608 512.546 196.052 511.92C195.441 511.888 194.862 511.642 194.416 511.224C190.797 507.488 187.885 500.923 187.885 500.923C187.885 500.923 189.614 498.533 194.938 504.878L198.314 501.781L191.354 494.752C191.354 494.752 195.286 491.631 201.968 495.61C201.736 495.123 197.432 485.75 200.68 472.99L184.44 457.318L198.847 444.767L200.007 443.793C200.007 443.793 200.912 444.686 202.327 446.113C203.742 447.54 205.703 449.256 207.826 451.124C212.906 455.59 219.054 460.404 221.746 460.404C226.594 460.242 215.4 503.162 215.4 503.162Z" stroke="#263238" stroke-linecap="round" stroke-linejoin="round"/>
<path d="M198.36 501.781C199.125 499.496 200.362 497.397 201.991 495.622" stroke="#263238" stroke-linecap="round" stroke-linejoin="round"/>
<path d="M455.636 393.913C453.46 397.087 450.83 399.924 447.83 402.334C422.472 423.33 364.008 433.654 364.008 433.654C364.008 433.654 362.048 436.589 359.032 440.765C353.626 448.27 344.775 459.801 337.56 465.578C334.509 468.025 331.76 469.44 329.66 469.058L340.634 509.576L345.541 527.162C345.541 527.162 295.127 549.202 208.904 524.007C208.904 524.007 207.918 512.755 208.649 510.354C208.649 510.238 208.719 510.122 208.765 509.994C209.643 508.395 210.789 506.959 212.152 505.748C212.152 505.748 211.665 498.51 211.422 491.144C211.143 486.448 211.201 481.738 211.596 477.05C212.21 473.338 214.925 464.36 216.294 459.952L217.094 457.388L212.802 417.206L211.572 405.606L211.503 405.002C211.503 404.921 211.503 404.828 211.503 404.712L210.83 398.506L188.651 405.281C188.651 405.281 189.811 407.879 191.412 411.522C194.323 418.192 198.604 428.342 199.532 432.402C199.601 432.733 199.694 433.058 199.81 433.376C201.863 439.234 209.682 444.558 209.682 444.558L188.674 469.104L182.468 464.766C181.674 465.354 180.836 465.881 179.962 466.343C175.879 468.559 167.318 471.818 157.922 466.842C153.851 464.553 150.315 461.421 147.552 457.655C131.08 436.264 123.911 418.76 126.243 398.263C128.574 377.766 220.818 314.511 239.122 315.172L266.348 321.181C266.939 320.694 268.528 319.441 269.758 319.499C274.711 319.754 274.839 325.508 274.839 325.508L335.855 335.414C335.855 335.414 342.177 332.247 343.279 332.294C344.076 332.347 344.846 332.599 345.521 333.027C346.196 333.454 346.753 334.044 347.142 334.741C347.142 334.741 362.941 325.276 368.022 327.48C384.749 334.695 467.99 375.144 455.636 393.913Z" fill="#608AF3"/>
<path opacity="0.2" d="M243.658 494.16C236.724 501.782 227.415 506.831 217.245 508.486C214.032 508.996 211.213 509.507 208.742 510.017C209.62 508.419 210.766 506.983 212.129 505.772C212.129 505.772 211.642 498.533 211.398 491.167C218.556 495.888 231.037 501.34 243.658 494.16Z" fill="black"/>
<path opacity="0.2" d="M216.27 460.01L217.071 457.446L212.779 417.264C219.194 426.462 242.069 457.794 257.833 461.181C274.317 464.708 230.248 470.96 216.27 460.01Z" fill="black"/>
<path opacity="0.2" d="M340.611 509.634C323.385 507.674 299.036 503.336 296.6 494.322C292.807 480.24 311.263 471.795 337.56 465.636C334.509 468.083 331.76 469.498 329.66 469.116L340.611 509.634Z" fill="black"/>
<path opacity="0.2" d="M447.818 402.346C422.46 423.342 363.996 433.666 363.996 433.666C363.996 433.666 362.036 436.601 359.02 440.777C350.419 420.24 349.105 397.378 355.296 375.991C355.296 375.991 359.797 400.351 378.496 406.151C378.496 406.151 364.182 395.49 369.216 369.831C369.216 369.831 374.1 399.991 405.872 408.366C421.289 412.508 436.38 408.007 447.818 402.346Z" fill="black"/>
<path opacity="0.2" d="M211.48 405.084L210.784 398.588L188.604 405.362C188.604 405.362 189.764 407.96 191.365 411.603C182.886 410.733 166.796 418.563 163.989 410.025C160.602 399.678 181.389 403.239 181.389 403.239L201.04 391.813C197.328 375.921 206.782 363.973 206.782 363.973L208.58 375.063C209.438 353.986 217.686 342.455 217.686 342.455C210.865 359.124 211.05 400.2 211.48 405.084Z" fill="black"/>
<path opacity="0.2" d="M209.67 444.593L188.662 469.139L182.456 464.8C181.662 465.388 180.824 465.916 179.951 466.378C175.868 468.594 167.307 471.853 157.911 466.877C164.72 457.458 178.791 443.596 195.506 438.248C191.403 444.355 187.706 450.726 184.44 457.318L188.755 461.564C188.755 461.564 199.52 449.291 209.67 444.593Z" fill="black"/>
<path opacity="0.2" d="M260.675 336.481C260.675 338.65 259.306 363.161 277.17 369.692C295.034 376.223 310.88 365.18 310.88 365.18C310.88 365.18 283.492 391.604 266.8 377.476C250.108 363.347 260.675 336.481 260.675 336.481Z" fill="black"/>
<path d="M208.87 524.053C208.87 524.053 207.907 512.801 208.626 510.412C209.229 508.393 212.106 505.772 212.106 505.772C212.106 505.772 210.586 482.966 211.561 477.085C212.396 472.039 217.059 457.365 217.059 457.365L210.772 398.506L188.593 405.292C188.593 405.292 198.035 426.172 199.497 432.367C200.958 438.561 209.658 444.512 209.658 444.512L188.651 469.046L182.445 464.719C182.445 464.719 164.117 479.057 147.564 457.62C131.01 436.183 123.9 418.725 126.22 398.17C128.54 377.615 220.818 314.43 239.122 315.079L266.348 321.1C266.928 320.612 268.528 319.36 269.746 319.418C274.7 319.673 274.827 325.426 274.827 325.426L335.843 335.333C335.843 335.333 342.177 332.166 343.279 332.212C344.074 332.268 344.842 332.521 345.515 332.948C346.187 333.376 346.742 333.964 347.13 334.66C347.13 334.66 362.929 325.206 368.01 327.398C384.714 334.614 467.944 375.063 455.602 393.832C438.074 420.512 363.962 433.631 363.962 433.631C363.962 433.631 339.312 470.751 329.602 469.034L345.483 527.139" stroke="#263238" stroke-linecap="round" stroke-linejoin="round"/>
<path d="M391.152 397.984C419.154 416.475 441.728 413.064 459.395 389.261C459.395 389.261 474.104 370.295 473.06 349.821C472.016 329.347 467.132 262.647 403.39 279.699C392.892 282.506 368.404 315.3 366.351 324.313C365.4 328.431 355.575 349.392 346.028 371.096" fill="#608AF3"/>
<path d="M391.152 397.984C419.154 416.475 441.728 413.064 459.395 389.261C459.395 389.261 474.104 370.295 473.06 349.821C472.016 329.347 467.132 262.647 403.39 279.699C392.892 282.506 368.404 315.3 366.351 324.313C365.4 328.431 355.575 349.392 346.028 371.096" stroke="#263238" stroke-linecap="round" stroke-linejoin="round"/>
<path d="M315.392 202.026C315.392 202.026 333.233 199.323 345.622 210.412C361.294 224.437 378.891 262.253 353.835 324.916C353.835 324.916 316.819 300.347 253.646 316.796C253.646 316.796 259.086 302.099 249.539 255.826C245.224 234.888 256.082 186.656 315.392 202.026Z" fill="#263238"/>
<path d="M288.353 359.275C314.754 363.556 342.803 334.324 342.803 334.324C342.803 334.324 328.454 332.56 327.166 325.821C323.048 304.558 339.613 278.261 339.613 278.261C339.613 278.261 275.512 280.036 286.717 294.501C288.802 297.147 290.508 300.072 291.786 303.189C295.672 312.736 292.946 319.94 290.916 321.749C290.769 321.87 290.61 321.974 290.441 322.062C286.566 323.826 270.64 321.192 270.64 321.192C270.64 321.192 264.26 355.366 288.353 359.275Z" fill="white" stroke="#263238" stroke-linecap="round" stroke-linejoin="round"/>
<path d="M333.72 342.42C333.72 342.42 321.54 347.292 303.711 345.842L295.684 349.775" stroke="#263238" stroke-linecap="round" stroke-linejoin="round"/>
<path d="M287.68 349.16L287.1 343.894C287.1 343.894 273.946 339.776 269.874 331.957" stroke="#263238" stroke-linecap="round" stroke-linejoin="round"/>
<path d="M290.916 321.784C310.544 326.911 319.766 301.739 319.766 301.739C319.766 301.739 304.059 297.099 291.786 303.27C295.672 312.817 292.981 320.021 290.916 321.784Z" fill="#263238"/>
<path d="M340.75 265.048C345.518 238.241 340.216 206.074 299.408 208.742C270.257 210.644 270.5 242.602 272.426 252.149C275.674 268.192 271.022 274.502 276.022 287.982C279.618 297.668 287.958 308.502 297.784 312.562C303.827 315.056 328.292 297.888 330.101 290.035" fill="white"/>
<path d="M340.75 265.048C345.518 238.241 340.216 206.074 299.408 208.742C270.257 210.644 270.5 242.602 272.426 252.149C275.674 268.192 271.022 274.502 276.022 287.982C279.618 297.668 287.958 308.502 297.784 312.562C303.827 315.056 328.292 297.888 330.101 290.035" stroke="#263238" stroke-linecap="round" stroke-linejoin="round"/>
<path d="M289.478 257.149C289.234 260.165 288.875 267.589 282.518 273.11C278.388 276.672 287.854 280.314 287.854 280.314" stroke="#263238" stroke-linecap="round" stroke-linejoin="round"/>
<path d="M282.704 246.512C282.704 246.512 273.702 242.127 267.624 249.365" stroke="#263238" stroke-linecap="round" stroke-linejoin="round"/>
<path d="M297.807 245.92C304.135 244.085 310.889 244.353 317.051 246.686" stroke="#263238" stroke-linecap="round" stroke-linejoin="round"/>
<path d="M307.156 258.599C307.435 261.186 309.175 263.123 311.042 262.914C312.91 262.705 314.198 260.455 313.919 257.868C313.641 255.281 311.901 253.356 310.033 253.553C308.166 253.75 306.878 256.012 307.156 258.599Z" fill="#263238"/>
<path d="M288.295 288.84C295.451 287.852 302.314 285.345 308.421 281.486C308.421 281.486 309.268 292.738 299.848 295.069C292.622 296.867 289.826 288.62 289.826 288.62" stroke="#263238" stroke-linecap="round" stroke-linejoin="round"/>
<path d="M314.766 218.95C314.766 218.95 312.191 250.722 340.228 262.264L353.371 231.722L333.488 209.682L303.549 201.028C258.808 203.824 239.552 231.617 264.387 305.683C264.387 305.718 257.439 217.512 314.766 218.95Z" fill="#263238"/>
<path d="M334.08 263.61C333.686 260.037 342.722 250.943 345.773 256.778C350.981 266.73 347.188 275.338 341.806 278.818C339.393 280.337 336.33 283.191 334.184 280.5" fill="white"/>
<path d="M334.08 263.61C333.686 260.037 342.722 250.943 345.773 256.778C350.981 266.73 347.188 275.338 341.806 278.818C339.393 280.337 336.33 283.191 334.184 280.5" stroke="#263238" stroke-linecap="round" stroke-linejoin="round"/>
<path d="M279.85 259.84C280.14 262.427 281.88 264.364 283.748 264.155C285.615 263.946 286.903 261.696 286.624 259.109C286.346 256.522 284.594 254.585 282.727 254.794C280.859 255.003 279.56 257.195 279.85 259.84Z" fill="#263238"/>
<g opacity="0.2">
<path d="M260.42 254.574C260.084 256.72 259.852 258.9 259.724 261.07" stroke="white" stroke-linecap="round" stroke-linejoin="round"/>
<path d="M310.126 213.173C287.46 212.582 266.394 227.024 261.406 249.702" stroke="white" stroke-linecap="round" stroke-linejoin="round"/>
<path d="M306.078 206.7C306.078 206.7 273.389 199.01 261.139 220.69" stroke="white" stroke-linecap="round" stroke-linejoin="round"/>
<path d="M332.595 244.47C334.566 247.276 336.939 249.777 339.636 251.894" stroke="white" stroke-linecap="round" stroke-linejoin="round"/>
<path d="M319.626 210.934C321.297 221.318 324.809 231.32 329.997 240.468" stroke="white" stroke-linecap="round" stroke-linejoin="round"/>
<path d="M352.466 309.256C351.886 311.854 351.202 314.43 350.436 316.982" stroke="white" stroke-linecap="round" stroke-linejoin="round"/>
<path d="M350.575 266.058C355.876 277.832 355.517 292.482 353.336 304.871" stroke="white" stroke-linecap="round" stroke-linejoin="round"/>
<path d="M346.689 286.52C346.948 290.979 346.26 295.443 344.67 299.617C343.081 303.792 340.626 307.583 337.467 310.741" stroke="white" stroke-linecap="round" stroke-linejoin="round"/>
<path d="M331.621 214.728C337.177 222.244 341.307 230.306 347.745 237.174C354.531 244.4 361.317 252.683 362.593 262.868" stroke="white" stroke-linecap="round" stroke-linejoin="round"/>
<path d="M323.779 206.909C325.371 207.953 326.835 209.179 328.141 210.563" stroke="white" stroke-linecap="round" stroke-linejoin="round"/>
</g>
<path d="M435.592 381.35C434.942 381.489 434.292 381.605 433.62 381.698C416.08 384.204 396.407 369.657 389.772 352.199C384.528 338.407 389.11 322.758 391.616 316.065C392.405 313.966 392.973 312.748 392.973 312.748C403.552 297.668 465.056 327.19 465.775 343.476C466.494 359.762 453.56 377.406 435.592 381.35Z" fill="#263238" stroke="#263238" stroke-linecap="round" stroke-linejoin="round"/>
<path d="M454.836 345.68C454.836 345.68 451.356 371.571 433.62 381.698C416.08 384.204 396.407 369.657 389.772 352.199C384.528 338.407 389.11 322.758 391.616 316.065C412.345 304.222 454.836 345.68 454.836 345.68Z" fill="white"/>
<path opacity="0.4" d="M454.836 345.68C454.836 345.68 451.356 371.571 433.62 381.698C416.08 384.204 396.407 369.657 389.772 352.199C384.528 338.407 389.11 322.758 391.616 316.065C412.345 304.222 454.836 345.68 454.836 345.68Z" fill="#608AF3"/>
<path d="M454.836 345.68C454.836 345.68 451.356 371.571 433.62 381.698C416.08 384.204 396.407 369.657 389.772 352.199C384.528 338.407 389.11 322.758 391.616 316.065C412.345 304.222 454.836 345.68 454.836 345.68Z" stroke="#263238" stroke-linecap="round" stroke-linejoin="round"/>
<path d="M382.301 359.31C382.301 359.31 402.276 387.985 425.604 390.375C448.932 392.764 463.884 373.114 464.8 358.301" stroke="#263238" stroke-linecap="round" stroke-linejoin="round"/>
<path d="M371.072 229.912C372.824 225.005 385.422 226.652 389.424 241.964C393.426 257.276 409.144 294.501 409.144 294.501C409.144 294.501 471.784 202.385 482.966 198.836C494.148 195.286 489.752 211.248 474.753 233.392C474.753 233.392 488.801 230.921 492.49 233.392C496.178 235.863 494.38 250.792 496.341 255.966C499.635 264.7 492.316 266.545 492.316 266.545C495.906 266.625 499.36 267.94 502.094 270.268C506.12 274.038 504.101 289.617 505.25 294.025C506.398 298.433 498.719 302.145 498.719 302.145C498.719 302.145 517.174 312.202 513.01 314.731C505.98 318.977 501.978 314.627 501.978 314.627C501.978 314.627 473.616 350.239 452.226 358.173C430.836 366.108 389.203 334.579 384.726 317.411C380.248 300.243 385.596 301.298 382.197 272.728C378.798 244.157 371.072 229.912 371.072 229.912Z" fill="white" stroke="#263238" stroke-linecap="round" stroke-linejoin="round"/>
<path d="M462.397 173.313L379.916 194.813C376.99 195.576 375.236 198.566 375.999 201.492L414.988 351.064C415.75 353.991 418.741 355.744 421.667 354.982L504.147 333.482C507.074 332.719 508.827 329.728 508.065 326.802L469.076 177.23C468.313 174.304 465.323 172.551 462.397 173.313Z" fill="white" stroke="#263238" stroke-linecap="round" stroke-linejoin="round"/>
<path d="M415.141 190.507C415.185 190.677 415.195 190.854 415.171 191.027C415.147 191.201 415.089 191.369 415 191.52C414.911 191.671 414.793 191.804 414.653 191.909C414.513 192.015 414.354 192.092 414.184 192.137C414.014 192.181 413.837 192.191 413.663 192.167C413.489 192.143 413.322 192.085 413.171 191.996C413.019 191.907 412.887 191.789 412.781 191.649C412.675 191.509 412.598 191.349 412.554 191.18C412.507 191.01 412.494 190.832 412.517 190.657C412.539 190.482 412.597 190.314 412.685 190.162C412.774 190.009 412.892 189.876 413.033 189.77C413.174 189.664 413.334 189.587 413.505 189.544C413.85 189.456 414.215 189.508 414.522 189.688C414.828 189.868 415.051 190.163 415.141 190.507Z" fill="#608AF3" stroke="#263238" stroke-linecap="round" stroke-linejoin="round"/>
<path d="M432.135 186.076C432.163 186.182 432.169 186.293 432.154 186.403C432.139 186.512 432.102 186.617 432.046 186.712C431.99 186.807 431.915 186.889 431.827 186.955C431.739 187.021 431.638 187.069 431.532 187.096C431.372 187.137 431.203 187.129 431.048 187.074C430.893 187.019 430.757 186.919 430.658 186.787C430.559 186.655 430.502 186.497 430.493 186.332C430.484 186.167 430.524 186.004 430.608 185.862C430.692 185.72 430.816 185.606 430.964 185.534C431.113 185.463 431.279 185.437 431.443 185.46C431.606 185.482 431.759 185.553 431.882 185.663C432.005 185.772 432.093 185.916 432.135 186.076Z" fill="#608AF3" stroke="#263238" stroke-linecap="round" stroke-linejoin="round"/>
<path d="M428.074 188.168L418.116 190.734C417.917 190.786 417.798 190.988 417.849 191.187L417.901 191.39C417.952 191.589 418.155 191.708 418.354 191.657L428.312 189.09C428.511 189.039 428.63 188.836 428.579 188.638L428.527 188.435C428.476 188.236 428.273 188.117 428.074 188.168Z" fill="#608AF3" stroke="#263238" stroke-width="1.0017" stroke-linecap="round" stroke-linejoin="round"/>
<path d="M466.598 178.779L505.261 327.12C505.477 327.952 505.353 328.836 504.918 329.577C504.484 330.319 503.773 330.857 502.941 331.076L421.521 352.292C420.689 352.507 419.805 352.384 419.064 351.949C418.322 351.514 417.783 350.803 417.565 349.972L378.902 201.631C378.687 200.799 378.81 199.915 379.245 199.174C379.68 198.433 380.391 197.894 381.222 197.676L397.938 193.314C398.474 193.173 399.041 193.2 399.561 193.391C400.082 193.582 400.531 193.927 400.85 194.381L402.068 196.11C402.386 196.564 402.836 196.909 403.356 197.1C403.877 197.291 404.443 197.318 404.979 197.177L441.67 187.618C442.201 187.48 442.677 187.184 443.038 186.77C443.398 186.356 443.624 185.843 443.688 185.298L443.909 183.199C443.97 182.653 444.195 182.138 444.556 181.724C444.917 181.309 445.395 181.015 445.927 180.879L462.643 176.517C463.467 176.3 464.344 176.415 465.084 176.838C465.824 177.261 466.368 177.959 466.598 178.779Z" fill="#608AF3" stroke="#263238" stroke-linecap="round" stroke-linejoin="round"/>
<path d="M469.434 262.021C476.999 244.597 469.008 224.339 451.584 216.774C434.16 209.209 413.902 217.201 406.337 234.625C398.772 252.048 406.764 272.306 424.188 279.871C441.611 287.436 461.869 279.444 469.434 262.021Z" fill="white" stroke="#263238" stroke-linecap="round" stroke-linejoin="round"/>
<path d="M423.678 268.076C423.972 268.768 424.512 269.326 425.193 269.643C425.874 269.96 426.649 270.013 427.367 269.793L438.677 266.533C438.702 266.777 438.749 267.017 438.816 267.252C438.988 267.843 439.274 268.395 439.658 268.875C440.043 269.356 440.518 269.756 441.057 270.053C441.597 270.349 442.189 270.537 442.8 270.605C443.412 270.673 444.031 270.62 444.622 270.448C445.213 270.277 445.765 269.991 446.245 269.606C446.726 269.222 447.126 268.746 447.423 268.207C447.719 267.668 447.907 267.076 447.975 266.464C448.043 265.852 447.989 265.233 447.818 264.642C447.746 264.408 447.657 264.179 447.551 263.958L458.85 260.698C459.587 260.501 460.225 260.034 460.635 259.39C461.045 258.745 461.199 257.971 461.065 257.218C460.994 256.809 460.837 256.42 460.605 256.076C460.372 255.732 460.07 255.441 459.717 255.222C459.365 255.003 458.97 254.861 458.558 254.805C458.147 254.749 457.728 254.781 457.33 254.898L456.379 254.318C454.317 253.085 452.8 251.116 452.133 248.808L449.987 241.373C449.104 238.311 447.141 235.672 444.463 233.945C441.785 232.217 438.571 231.518 435.418 231.977C435.959 231.406 436.297 230.672 436.381 229.889C436.464 229.106 436.287 228.318 435.877 227.646C435.468 226.974 434.848 226.455 434.115 226.17C433.381 225.885 432.574 225.849 431.818 226.068C431.062 226.288 430.399 226.75 429.932 227.383C429.464 228.016 429.219 228.786 429.232 229.573C429.246 230.36 429.518 231.121 430.007 231.737C430.496 232.354 431.174 232.793 431.938 232.986C428.996 234.271 426.624 236.584 425.265 239.493C423.907 242.401 423.656 245.705 424.56 248.785L426.729 256.302C427.115 257.615 427.211 258.996 427.011 260.35C426.81 261.704 426.319 262.998 425.569 264.144C425.176 264.262 424.812 264.461 424.501 264.728C424.189 264.995 423.936 265.324 423.758 265.694C423.58 266.063 423.481 266.466 423.468 266.876C423.454 267.287 423.526 267.695 423.678 268.076ZM434.826 229.03C434.94 229.427 434.935 229.849 434.81 230.242C434.684 230.636 434.445 230.983 434.123 231.241C433.8 231.499 433.408 231.655 432.997 231.69C432.585 231.725 432.173 231.637 431.811 231.438C431.45 231.238 431.156 230.936 430.966 230.569C430.776 230.203 430.699 229.788 430.745 229.378C430.79 228.967 430.957 228.58 431.223 228.264C431.489 227.948 431.843 227.718 432.239 227.604C432.503 227.526 432.779 227.501 433.052 227.531C433.325 227.56 433.59 227.644 433.831 227.777C434.071 227.909 434.283 228.089 434.454 228.304C434.625 228.519 434.751 228.766 434.826 229.03Z" fill="#608AF3" stroke="#263238" stroke-linecap="round" stroke-linejoin="round"/>
<path d="M445.498 264.144L440.51 265.594" stroke="#263238" stroke-linecap="round" stroke-linejoin="round"/>
<path d="M452.876 256.163L430.012 262.775" stroke="#263238" stroke-linecap="round" stroke-linejoin="round"/>
<path d="M476.76 302.366L430.36 314.453C429.033 314.803 427.65 314.887 426.291 314.702C424.931 314.517 423.621 314.066 422.436 313.374C421.251 312.683 420.214 311.764 419.384 310.671C418.554 309.579 417.948 308.333 417.6 307.006C417.25 305.678 417.166 304.294 417.352 302.934C417.538 301.574 417.99 300.264 418.683 299.078C419.376 297.893 420.295 296.856 421.389 296.027C422.484 295.198 423.73 294.592 425.059 294.246L471.459 282.158C474.13 281.469 476.966 281.866 479.346 283.261C481.726 284.657 483.457 286.938 484.161 289.606C484.869 292.279 484.487 295.124 483.1 297.516C481.712 299.909 479.432 301.653 476.76 302.366Z" fill="#263238"/>
<path d="M363.996 433.712C363.996 433.712 349.914 400.942 357.036 361.201" stroke="#263238" stroke-linecap="round" stroke-linejoin="round"/>
<path d="M329.637 469.116C329.637 469.116 301.171 477.816 298.317 484.37C295.464 490.924 311.077 485.402 311.077 485.402" stroke="#263238" stroke-linecap="round" stroke-linejoin="round"/>
<path d="M347.142 334.741C347.142 334.741 320.926 360.725 303.386 367.65" stroke="#263238" stroke-linecap="round" stroke-linejoin="round"/>
<path d="M261.244 327.758C261.244 327.758 256.464 362.836 274.294 369.46" stroke="#263238" stroke-linecap="round" stroke-linejoin="round"/>
<path d="M210.784 398.588C210.784 398.588 210.644 352.605 219.774 338.384" stroke="#263238" stroke-linecap="round" stroke-linejoin="round"/>
<path d="M207.373 351.735C207.373 351.735 204.81 380.294 210.575 389.609" stroke="#263238" stroke-linecap="round" stroke-linejoin="round"/>
<path d="M188.604 405.374C188.604 405.374 168.664 398.506 164.534 407.021C160.405 415.535 176.424 407.984 176.424 407.984" stroke="#263238" stroke-linecap="round" stroke-linejoin="round"/>
<path d="M200.599 435.186C200.599 435.186 181.018 446.217 180.009 452.528" stroke="#263238" stroke-linecap="round" stroke-linejoin="round"/>
<path d="M232.58 404.678C232.58 404.678 270.06 461.32 290.742 456.124" stroke="#263238" stroke-linecap="round" stroke-linejoin="round"/>
<path d="M258.181 484.126C258.181 484.126 228.798 505.667 224.541 503.846" stroke="#263238" stroke-linecap="round" stroke-linejoin="round"/>
<path opacity="0.2" d="M464 392.208C465.984 390.584 467.294 389.505 467.724 389.168C467.283 389.551 466.007 390.665 464 392.208Z" fill="black"/>
<path d="M425.862 299.698L428.07 299.125C428.838 298.926 429.445 298.961 429.891 299.231C430.335 299.492 430.653 299.993 430.845 300.734L430.997 301.316C431.252 302.301 431.089 303.009 430.506 303.44L430.513 303.467C430.903 303.481 431.213 303.637 431.444 303.934C431.685 304.228 431.878 304.656 432.023 305.216L432.455 306.883C432.526 307.154 432.592 307.373 432.655 307.54C432.715 307.697 432.802 307.848 432.917 307.992L431.399 308.386C431.305 308.246 431.231 308.111 431.178 307.98C431.125 307.85 431.053 307.608 430.961 307.256L430.511 305.521C430.399 305.088 430.248 304.804 430.059 304.67C429.879 304.533 429.617 304.509 429.274 304.598L428.759 304.732L429.814 308.797L428.323 309.184L425.862 299.698ZM428.949 303.236C429.247 303.159 429.449 303.025 429.553 302.834C429.667 302.64 429.677 302.363 429.583 302.001L429.394 301.27C429.304 300.926 429.177 300.694 429.01 300.574C428.853 300.45 428.643 300.423 428.381 300.491L427.704 300.667L428.407 303.377L428.949 303.236Z" fill="white"/>
<path d="M431.327 298.28L435.392 297.225L435.744 298.58L433.169 299.248L433.82 301.755L435.866 301.225L436.218 302.58L434.172 303.111L434.928 306.024L437.502 305.356L437.854 306.711L433.789 307.766L431.327 298.28Z" fill="white"/>
<path d="M440.861 306.076C440.138 306.263 439.534 306.203 439.049 305.895C438.562 305.578 438.219 305.035 438.019 304.267L436.725 299.28C436.526 298.512 436.563 297.876 436.837 297.371C437.109 296.857 437.606 296.506 438.329 296.319C439.052 296.131 439.657 296.196 440.144 296.513C440.629 296.821 440.971 297.359 441.17 298.127L441.381 298.94L439.972 299.306L439.736 298.398C439.574 297.775 439.236 297.53 438.721 297.663C438.206 297.797 438.03 298.175 438.191 298.799L439.538 303.989C439.697 304.603 440.035 304.844 440.55 304.71C441.065 304.576 441.242 304.202 441.083 303.588L440.601 301.732L439.856 301.925L439.504 300.57L441.659 300.011L442.464 303.114C442.663 303.882 442.627 304.523 442.356 305.037C442.082 305.542 441.583 305.888 440.861 306.076Z" fill="white"/>
<path d="M441.543 295.629L443.034 295.242L445.495 304.728L444.005 305.115L441.543 295.629Z" fill="white"/>
<path d="M448.585 304.071C447.862 304.259 447.263 304.197 446.787 303.887C446.309 303.568 445.97 303.024 445.771 302.256L445.63 301.714L447.039 301.348L447.208 301.999C447.368 302.613 447.705 302.853 448.22 302.72C448.473 302.654 448.644 302.533 448.733 302.355C448.828 302.166 448.833 301.905 448.746 301.571C448.643 301.173 448.462 300.849 448.204 300.598C447.944 300.337 447.515 300.058 446.917 299.76C446.162 299.377 445.606 299.001 445.249 298.631C444.891 298.251 444.64 297.786 444.497 297.235C444.302 296.485 444.342 295.858 444.616 295.353C444.887 294.839 445.385 294.488 446.107 294.3C446.821 294.115 447.413 294.183 447.882 294.505C448.358 294.816 448.695 295.355 448.894 296.123L448.996 296.516L447.587 296.881L447.461 296.394C447.376 296.068 447.252 295.85 447.088 295.738C446.922 295.617 446.716 295.589 446.473 295.652C445.976 295.781 445.806 296.148 445.963 296.753C446.052 297.097 446.225 297.394 446.484 297.645C446.751 297.894 447.183 298.167 447.781 298.465C448.545 298.846 449.102 299.227 449.452 299.609C449.802 299.99 450.054 300.479 450.208 301.076C450.41 301.852 450.371 302.499 450.09 303.015C449.818 303.529 449.317 303.881 448.585 304.071Z" fill="white"/>
<path d="M450.71 294.697L449.151 295.102L448.8 293.746L453.407 292.551L453.759 293.906L452.2 294.31L454.31 302.441L452.819 302.828L450.71 294.697Z" fill="white"/>
<path d="M454.129 292.364L458.194 291.309L458.546 292.664L455.971 293.332L456.621 295.839L458.668 295.308L459.019 296.663L456.973 297.194L457.729 300.108L460.304 299.44L460.655 300.795L456.59 301.85L454.129 292.364Z" fill="white"/>
<path d="M459.052 291.086L461.26 290.513C462.028 290.314 462.635 290.349 463.081 290.619C463.525 290.88 463.843 291.381 464.035 292.122L464.187 292.704C464.442 293.689 464.279 294.397 463.696 294.828L463.703 294.855C464.093 294.869 464.403 295.025 464.634 295.322C464.875 295.616 465.067 296.044 465.213 296.604L465.645 298.27C465.716 298.541 465.782 298.76 465.845 298.927C465.905 299.085 465.992 299.236 466.107 299.38L464.589 299.774C464.495 299.634 464.421 299.499 464.368 299.368C464.315 299.238 464.243 298.996 464.151 298.644L463.701 296.909C463.589 296.476 463.438 296.192 463.249 296.057C463.069 295.921 462.807 295.897 462.464 295.986L461.949 296.12L463.004 300.185L461.513 300.572L459.052 291.086ZM462.139 294.624C462.437 294.547 462.639 294.413 462.743 294.222C462.857 294.028 462.867 293.751 462.773 293.389L462.583 292.658C462.494 292.314 462.367 292.082 462.2 291.961C462.043 291.838 461.833 291.811 461.571 291.879L460.894 292.055L461.597 294.765L462.139 294.624Z" fill="white"/>
<path d="M464.517 289.668L468.582 288.613L468.934 289.968L466.359 290.636L467.01 293.143L469.056 292.612L469.408 293.968L467.361 294.499L468.117 297.412L470.692 296.744L471.044 298.099L466.978 299.154L464.517 289.668Z" fill="white"/>
<path d="M469.44 288.391L471.717 287.8C472.457 287.608 473.065 287.662 473.538 287.964C474.012 288.265 474.348 288.8 474.547 289.568L475.792 294.365C475.991 295.133 475.957 295.763 475.69 296.257C475.423 296.751 474.919 297.094 474.178 297.286L471.901 297.877L469.44 288.391ZM473.799 295.938C474.043 295.874 474.21 295.754 474.299 295.577C474.397 295.397 474.403 295.145 474.319 294.819L473.039 289.887C472.955 289.561 472.826 289.344 472.653 289.235C472.489 289.123 472.285 289.099 472.041 289.162L471.282 289.359L473.04 296.135L473.799 295.938Z" fill="white"/>
</svg>
