<svg width="21" height="21" viewBox="0 0 21 21" fill="none" xmlns="http://www.w3.org/2000/svg">
<g clip-path="url(#clip0_240_212)">
<path d="M8.09377 18.0079V17.4766C8.10549 17.4337 8.12502 17.3946 8.13283 17.3516C8.30471 16.2345 9.23439 15.3516 10.3242 15.2774C11.543 15.1915 12.5742 15.8868 12.9102 17.0196C12.9531 17.168 12.9844 17.3243 13.0234 17.4766V18.0079C13.0117 18.043 12.9922 18.0743 12.9883 18.1133C12.8203 19.1446 12.0781 19.9297 11.0625 20.1524C10.9844 20.168 10.9062 20.1915 10.8281 20.211H10.2969C10.2617 20.1993 10.2266 20.1797 10.1914 20.1758C9.17578 20.0118 8.40236 19.2891 8.16797 18.2852C8.14453 18.1875 8.11719 18.0977 8.09375 18.0079H8.09377ZM13.0235 2.99229L13.0234 3.52358C13.0117 3.56655 12.9922 3.60561 12.9883 3.64858C12.8125 4.77358 11.8789 5.65249 10.7773 5.7228C9.5625 5.80092 8.53516 5.0978 8.20312 3.96108C8.16016 3.81653 8.12891 3.66811 8.09375 3.52356V2.99231C8.10547 2.95715 8.125 2.9259 8.13281 2.89075C8.32031 1.87512 8.91016 1.21106 9.89453 0.894653C10.0234 0.851685 10.1602 0.828247 10.293 0.793091H10.8242C10.8594 0.80481 10.8945 0.824341 10.9297 0.828247C11.9492 0.996216 12.7188 1.71497 12.9531 2.71887C12.9766 2.81262 13 2.90247 13.0235 2.99229ZM13.0234 10.2345V10.7657C13.0117 10.8087 12.9922 10.8478 12.9844 10.8907C12.8086 12.0118 11.8398 12.9142 10.7461 12.9611C9.51562 13.0157 8.47266 12.2736 8.17969 11.129C8.14844 11.0079 8.12109 10.8868 8.09375 10.7657V10.2345C8.10547 10.1915 8.125 10.1525 8.13281 10.1095C8.30469 8.9884 9.27734 8.08604 10.3711 8.03528C11.6016 7.97669 12.6445 8.72278 12.9375 9.86731C12.9688 9.99231 12.9961 10.1134 13.0234 10.2345Z" fill="black"/>
</g>
<defs>
<clipPath id="clip0_240_212">
<rect width="20" height="20" fill="white" transform="translate(0.5 0.5)"/>
</clipPath>
</defs>
</svg>
