<svg width="16" height="16" viewBox="0 0 16 16" fill="none" xmlns="http://www.w3.org/2000/svg">
<path d="M7.99998 14C7.15794 13.2818 6.37744 12.4944 5.66665 11.646C4.59998 10.372 3.33331 8.47469 3.33331 6.66669C3.33285 5.74333 3.60632 4.84058 4.11911 4.0727C4.6319 3.30482 5.36096 2.70633 6.21403 2.35295C7.06709 1.99958 8.00581 1.90721 8.91139 2.08755C9.81697 2.26788 10.6487 2.71281 11.3013 3.36602C11.7358 3.79859 12.0802 4.31305 12.3146 4.8796C12.5489 5.44616 12.6686 6.05357 12.6666 6.66669C12.6666 8.47469 11.4 10.372 10.3333 11.646C9.62252 12.4944 8.84202 13.2818 7.99998 14ZM7.99998 4.66669C7.46955 4.66669 6.96084 4.8774 6.58577 5.25247C6.21069 5.62755 5.99998 6.13625 5.99998 6.66669C5.99998 7.19712 6.21069 7.70583 6.58577 8.0809C6.96084 8.45597 7.46955 8.66669 7.99998 8.66669C8.53041 8.66669 9.03912 8.45597 9.41419 8.0809C9.78927 7.70583 9.99998 7.19712 9.99998 6.66669C9.99998 6.13625 9.78927 5.62755 9.41419 5.25247C9.03912 4.8774 8.53041 4.66669 7.99998 4.66669Z" fill="#954F1D"/>
</svg>
