<svg width="16" height="16" viewBox="0 0 16 16" fill="none" xmlns="http://www.w3.org/2000/svg">
<g clip-path="url(#clip0_0_118)">
<path d="M14.775 5.26249C16.4094 6.91874 16.4094 9.58124 14.775 11.2375L11.275 14.7781C10.9844 15.0719 10.5094 15.075 10.2156 14.7844C9.91875 14.4937 9.91875 14.0187 10.2094 13.7219L13.7063 10.1844C14.7656 9.11249 14.7656 7.38749 13.7063 6.31562L9.71562 2.27718C9.42187 1.98249 9.425 1.5078 9.72188 1.21655C10.0156 0.925304 10.4906 0.928116 10.7531 1.2228L14.775 5.26249ZM0 7.17187V2.49999C0 1.67155 0.671562 0.999991 1.5 0.999991H6.17188C6.70312 0.999991 7.20937 1.21062 7.58437 1.58593L12.8344 6.83437C13.6156 7.61562 13.6156 8.88437 12.8344 9.66562L8.66562 13.8344C7.88437 14.6156 6.61562 14.6156 5.83437 13.8344L0.585938 8.58437C0.210719 8.20937 0 7.70312 0 7.17187ZM3.5 3.49999C2.94781 3.49999 2.5 3.94687 2.5 4.49999C2.5 5.05312 2.94781 5.49999 3.5 5.49999C4.05313 5.49999 4.5 5.05312 4.5 4.49999C4.5 3.94687 4.05313 3.49999 3.5 3.49999Z" fill="#954F1D"/>
</g>
<defs>
<clipPath id="clip0_0_118">
<rect width="16" height="16" fill="white"/>
</clipPath>
</defs>
</svg>
