<svg width="10" height="13" viewBox="0 0 10 13" fill="none" xmlns="http://www.w3.org/2000/svg">
<path d="M4.99998 13C4.15794 12.2818 3.37744 11.4944 2.66665 10.646C1.59998 9.37202 0.333314 7.47469 0.333314 5.66669C0.332851 4.74333 0.606319 3.84058 1.11911 3.0727C1.6319 2.30482 2.36096 1.70633 3.21403 1.35295C4.06709 0.999578 5.00581 0.907214 5.91139 1.08755C6.81697 1.26788 7.6487 1.71281 8.30131 2.36602C8.73582 2.79859 9.08021 3.31305 9.31457 3.8796C9.54893 4.44616 9.6686 5.05357 9.66665 5.66669C9.66665 7.47469 8.39998 9.37202 7.33331 10.646C6.62252 11.4944 5.84202 12.2818 4.99998 13ZM4.99998 3.66669C4.46955 3.66669 3.96084 3.8774 3.58577 4.25247C3.21069 4.62755 2.99998 5.13625 2.99998 5.66669C2.99998 6.19712 3.21069 6.70583 3.58577 7.0809C3.96084 7.45597 4.46955 7.66669 4.99998 7.66669C5.53041 7.66669 6.03912 7.45597 6.41419 7.0809C6.78927 6.70583 6.99998 6.19712 6.99998 5.66669C6.99998 5.13625 6.78927 4.62755 6.41419 4.25247C6.03912 3.8774 5.53041 3.66669 4.99998 3.66669Z" fill="#954F1D"/>
</svg>
