<svg width="334" height="307" viewBox="0 0 334 307" fill="none" xmlns="http://www.w3.org/2000/svg">
<path fill-rule="evenodd" clip-rule="evenodd" d="M265.266 -5.4142L263.866 -4.91881C262.315 -4.38631 261.471 -2.66149 262.013 -1.1278C262.481 0.236591 262.396 1.7311 261.898 3.11297C261.392 4.5128 261.343 6.0696 261.866 7.54979C262.182 8.50082 262.708 9.36809 263.407 10.0867C264.105 10.8052 264.957 11.3565 265.899 11.6992C266.841 12.0419 267.848 12.1672 268.845 12.0656C269.842 11.964 270.803 11.6382 271.656 11.1127C273.872 9.81399 275.155 7.23554 274.882 4.69768C274.594 2.46407 273.362 0.703927 271.698 -0.309999C270.484 -1.05956 269.527 -2.06184 269.086 -3.39069L269.076 -3.46217C268.543 -5.10326 266.818 -5.9467 265.266 -5.4142ZM259.958 8.21961C260.684 10.4225 262.247 12.1887 264.349 13.2166C267.008 14.5169 270.146 14.3818 272.682 12.8388C275.529 11.1589 277.208 7.81668 276.839 4.51938C281.836 9.18903 283.45 16.7687 280.287 23.2368L279.409 25.0335L256.106 13.6383C254.695 10.9227 254.532 7.61461 255.973 4.66804C256.939 2.69168 258.464 1.21128 260.272 0.247174C260.387 1.10484 260.206 1.88462 259.996 2.44999C259.333 4.30739 259.332 6.31099 259.958 8.21961ZM283.281 3.68426L280.999 2.56846C278.232 1.21544 277.094 -2.10189 278.447 -4.8688C279.8 -7.6357 283.117 -8.77416 285.884 -7.42114L284.794 -5.19324C283.303 -5.92247 281.483 -5.43231 280.745 -3.92309C280.007 -2.41387 280.562 -0.316793 282.053 0.412429L284.335 1.52823C287.12 2.89003 288.508 6.10677 287.19 8.8018L286.312 10.5985L284.066 9.50027L284.716 8.17072C285.673 6.21232 284.844 4.44862 283.281 3.68426ZM263.215 -6.81826C262.965 -6.71766 262.733 -6.60828 262.538 -6.48132L261.216 -10.289C260.59 -10.2835 260.023 -10.672 259.803 -11.2694C259.546 -12.0632 259.967 -12.9256 260.743 -13.1918C261.118 -13.3204 261.485 -13.2968 261.817 -13.1566C261.993 -13.4712 262.268 -13.7151 262.643 -13.8437C263.022 -13.9683 263.436 -13.9398 263.795 -13.7642C264.154 -13.5886 264.43 -13.2799 264.565 -12.9036C264.758 -12.2971 264.541 -11.6243 264.052 -11.2622L265.329 -7.45412C265.088 -7.41621 264.847 -7.3783 264.606 -7.29567L263.215 -6.81826ZM293.492 -2.76563C292.816 -1.38218 291.635 -0.423611 290.27 0.0446243C291.35 1.41506 292.018 3.06368 292.198 4.79898C292.378 6.53428 292.062 8.28504 291.287 9.84789L289.152 14.2138L286.924 13.1244L289.059 8.75845C290.693 5.4166 289.406 1.40291 286.064 -0.231254L287.153 -2.45915C288.644 -1.72993 290.517 -2.37261 291.246 -3.86386L293.492 -2.76563ZM276.773 30.4236L251.619 18.1235C250.666 17.6574 249.937 16.8319 249.593 15.8285C249.249 14.8251 249.317 13.7259 249.783 12.7729L282.123 28.5874C281.148 30.5817 278.767 31.3988 276.773 30.4236ZM173.503 24.1564L167.221 21.0845L169.44 18.4486L173.828 18.993L174.18 16.1388L168.134 15.2699L164.443 19.7263L152.02 13.6513L150.702 16.3464L152.281 17.1185L151.779 18.5427L152.401 18.847C155.686 20.4532 158.156 22.7986 159.535 25.6249C160.308 27.1861 160.713 28.9031 160.72 30.6449C160.722 31.7241 160.574 32.7983 160.279 33.8366C161.156 35.223 161.499 36.8813 161.242 38.5017C160.985 40.122 160.147 41.5934 158.885 42.6408C158.788 43.7385 158.49 44.809 158.006 45.799C157.086 47.6805 155.569 49.1606 153.735 49.9667C152.597 50.4718 151.35 50.6856 150.109 50.5887C149.26 51.4255 148.272 52.1078 147.189 52.6048C147.031 52.6758 146.872 52.743 146.713 52.8048L153.062 55.9096C154.41 56.5686 155.329 56.1831 156.115 55.0022L173.389 27.4454L174.955 28.2114L176.275 25.5122L173.503 24.1564ZM139.486 34.238L156.299 42.4599L155.311 44.4812C154.768 45.6199 153.864 46.548 152.74 47.1219C151.549 47.7114 150.205 47.8 149.025 47.2495C148.198 48.4228 147.14 49.3311 145.955 49.8669C144.2 50.661 142.238 50.6117 140.431 49.7279L129.314 44.2917C127.507 43.4079 126.263 41.8898 125.812 40.0192C125.507 38.7544 125.574 37.3618 125.992 35.9883C123.812 34.8709 123.058 31.9019 124.318 29.3257L125.307 27.3044L132.58 30.861L134.591 35.4972L139.486 34.238ZM136.187 32.2274L134.12 28.2747L126.624 24.6093L126.954 23.9356C127.334 23.1597 127.971 22.5388 128.756 22.1775C129.541 21.8162 130.426 21.7365 131.263 21.952C133.785 17.1294 139.274 15.7673 145.019 18.5768L151.083 21.542C153.766 22.8537 155.756 24.7204 156.841 26.9456C158.017 29.3431 158.02 31.9376 156.866 34.4718C157.55 35 158.031 35.7478 158.228 36.5893C158.425 37.4307 158.325 38.3143 157.947 39.0911L157.617 39.7649L140.605 31.4458L136.187 32.2274ZM238.257 52.4163L258.021 62.0807C260.015 63.056 260.832 65.4369 259.857 67.4313L257.221 72.8213C256.755 73.7744 255.93 74.5032 254.926 74.8476C253.923 75.1919 252.824 75.1236 251.871 74.6576L248.277 72.9004L245.642 78.2905C243.7 82.2612 238.911 83.9046 234.94 81.9629L224.16 76.6914C220.19 74.7498 218.546 69.961 220.488 65.9903L229.274 48.0234L236.46 51.5378L234.352 55.8498L229.826 56.8648C229.531 56.9211 229.274 57.1291 229.142 57.3986L225.399 65.0525C225.153 65.5555 225.355 66.1441 225.858 66.3901L233.045 69.9044C233.548 70.1504 234.137 69.9484 234.383 69.4454L238.125 61.7915C238.257 61.522 238.263 61.191 238.127 60.9238L236.149 56.7284L238.257 52.4163ZM250.034 69.307L253.628 71.0642L256.264 65.6741L252.67 63.9169L250.034 69.307ZM243.963 90.8278L215.216 76.7705L213.459 80.3639L242.206 94.4212L243.963 90.8278ZM321.826 92.0219C319.453 90.6743 316.546 91.7294 315.391 94.0902L314.803 95.2933L316.681 96.2116C326.424 100.976 333.732 109.278 336.883 118.874L336.891 118.896L337.282 120.266L338.006 120.118C340.672 119.578 342.465 116.845 341.467 114.148C337.956 104.638 331.125 97.3011 321.826 92.0219ZM302.166 121.135L313.75 97.4472L315.625 98.3644C324.81 102.856 331.652 110.658 334.597 119.599L334.921 120.744C331.651 121.4 327.922 122.138 325.505 122.572L323.145 127.398C322.866 127.969 322.371 128.407 321.768 128.613C321.166 128.82 320.507 128.779 319.935 128.499C319.363 128.22 318.926 127.724 318.719 127.122C318.513 126.52 318.554 125.861 318.833 125.289L319.424 124.082C319.522 123.794 319.507 123.479 319.382 123.202C319.257 122.924 319.031 122.705 318.75 122.587C318.47 122.47 318.155 122.464 317.87 122.57C317.584 122.676 317.35 122.887 317.214 123.159L315.104 127.475C314.824 128.047 314.329 128.484 313.727 128.691C313.124 128.898 312.465 128.857 311.893 128.577C311.321 128.297 310.884 127.802 310.677 127.2C310.471 126.598 310.512 125.938 310.791 125.367L310.794 125.362L306.064 126.25C303.154 126.796 300.867 123.792 302.166 121.135ZM319.593 108.394C319.77 108.238 319.914 108.049 320.018 107.838L320.019 107.836C320.228 107.408 320.258 106.915 320.104 106.465C319.949 106.015 319.623 105.645 319.195 105.436C318.768 105.227 318.275 105.196 317.825 105.351C317.375 105.505 317.004 105.832 316.795 106.259C316.692 106.471 316.631 106.701 316.616 106.936C316.601 107.171 316.633 107.407 316.709 107.63C316.786 107.853 316.905 108.058 317.061 108.235C317.217 108.412 317.406 108.556 317.617 108.66C317.829 108.763 318.059 108.824 318.294 108.839C318.529 108.854 318.765 108.822 318.988 108.746C319.211 108.669 319.416 108.55 319.593 108.394ZM323.294 116.195C323.744 116.041 324.114 115.714 324.323 115.286C324.532 114.859 324.563 114.366 324.408 113.916C324.254 113.466 323.927 113.096 323.5 112.887C323.072 112.678 322.579 112.647 322.129 112.801C321.679 112.956 321.309 113.283 321.1 113.71C320.891 114.138 320.86 114.63 321.015 115.08C321.169 115.531 321.496 115.901 321.923 116.11C322.351 116.319 322.844 116.349 323.294 116.195ZM314.254 118.466C314.706 118.311 315.078 117.982 315.288 117.553C315.499 117.123 315.529 116.627 315.374 116.175C315.219 115.722 314.89 115.35 314.46 115.14C314.031 114.93 313.535 114.899 313.083 115.054C312.63 115.21 312.258 115.538 312.048 115.968C311.838 116.398 311.807 116.893 311.962 117.346C312.117 117.798 312.446 118.17 312.876 118.38C313.306 118.591 313.801 118.621 314.254 118.466ZM161.478 232.193C160.508 234.176 158.817 236.333 155.737 234.827C152.658 233.321 153.321 230.662 154.291 228.679C155.262 226.693 158.302 223.836 160.57 224.945C162.837 226.054 162.45 230.206 161.478 232.193ZM140.192 230.919C139.063 231.306 138.134 232.126 137.61 233.198L136.593 235.279L141.471 243.272C141.72 243.681 142.082 244.009 142.512 244.219C142.943 244.428 143.424 244.509 143.899 244.453L148.061 243.959C149.073 243.839 150.098 244.002 151.022 244.431C151.946 244.859 152.733 245.536 153.296 246.385L155.907 250.334C156.179 250.745 156.566 251.067 157.021 251.259C157.475 251.451 157.976 251.504 158.461 251.411L167.385 249.706L168.154 248.134C168.678 247.062 168.755 245.825 168.368 244.697C167.98 243.568 167.16 242.639 166.088 242.115L143.63 231.132C142.557 230.608 141.321 230.531 140.192 230.919ZM130.362 248.021L135.029 238.477L135.03 238.475L138.91 244.836C139.459 245.735 140.254 246.458 141.202 246.918C142.149 247.378 143.209 247.557 144.255 247.432L148.415 246.937C148.875 246.883 149.341 246.957 149.761 247.152C150.181 247.347 150.539 247.654 150.794 248.041L153.405 251.989C154.004 252.894 154.857 253.601 155.857 254.023C156.857 254.444 157.959 254.56 159.025 254.356L165.738 253.075L160.906 262.957L162.253 263.616C162.611 263.79 162.884 264.1 163.013 264.476C163.142 264.853 163.116 265.265 162.942 265.622C162.767 265.98 162.457 266.253 162.081 266.382C161.705 266.511 161.293 266.485 160.935 266.311L127.696 250.057C127.339 249.882 127.066 249.573 126.937 249.196C126.807 248.82 126.833 248.408 127.008 248.051C127.183 247.693 127.492 247.42 127.869 247.291C128.245 247.162 128.657 247.187 129.014 247.362L130.362 248.021ZM275.565 178.589C274.865 179.827 274.428 181.195 274.28 182.61C274.132 184.024 274.277 185.453 274.705 186.809C272.753 186.463 270.743 186.69 268.918 187.464C267.094 188.238 265.533 189.525 264.425 191.168C261.764 195.111 260.525 199.843 260.915 204.584L261.025 205.951C261.03 206.002 261.037 206.052 261.047 206.102L261.917 210.771C262.1 211.76 262.498 212.698 263.081 213.518C263.664 214.338 264.419 215.021 265.293 215.519C266.167 216.018 267.139 216.32 268.142 216.405C269.145 216.489 270.154 216.354 271.099 216.009C271.209 215.969 271.327 215.951 271.444 215.957C271.562 215.963 271.677 215.993 271.783 216.045C271.888 216.097 271.983 216.169 272.06 216.258C272.137 216.347 272.195 216.451 272.231 216.563C272.539 217.521 273.052 218.4 273.734 219.139C274.417 219.879 275.252 220.461 276.182 220.844C277.113 221.228 278.115 221.404 279.121 221.361C280.126 221.318 281.11 221.056 282.004 220.593L286.223 218.411C286.248 218.399 286.272 218.385 286.295 218.371C286.315 218.36 286.335 218.348 286.354 218.335L287.503 217.583C291.484 214.982 294.46 211.101 295.94 206.581C296.375 205.249 296.533 203.842 296.403 202.447C296.273 201.051 295.858 199.697 295.184 198.469C294.509 197.24 293.59 196.164 292.482 195.305C291.375 194.446 290.103 193.824 288.745 193.476L284.983 192.514L284.978 192.511C285.717 191.136 286.674 189.734 287.735 188.654C289.018 187.35 290.199 186.765 291.168 186.824C291.565 186.848 291.955 186.713 292.253 186.449C292.551 186.184 292.731 185.813 292.755 185.415C292.779 185.018 292.643 184.628 292.379 184.33C292.115 184.032 291.743 183.852 291.346 183.828C289.07 183.693 287.081 185.038 285.595 186.551L285.388 186.765C285.364 185.694 285.174 184.633 284.827 183.619C284.351 182.231 283.586 180.959 282.582 179.889C281.578 178.818 280.358 177.973 279.003 177.409C278.385 177.15 277.694 177.127 277.061 177.343C276.427 177.56 275.895 178.002 275.565 178.585L275.565 178.589ZM273.956 195.201C273.272 195.02 272.486 195.179 271.72 195.84C270.939 196.513 270.192 197.713 269.815 199.481C269.727 199.865 269.492 200.199 269.16 200.412C268.828 200.624 268.426 200.697 268.04 200.615C267.655 200.533 267.317 200.302 267.1 199.973C266.883 199.644 266.805 199.243 266.881 198.857C267.364 196.595 268.38 194.758 269.762 193.566C271.158 192.364 272.938 191.829 274.72 192.3C274.917 192.344 275.102 192.428 275.265 192.546C275.429 192.663 275.567 192.813 275.671 192.985C275.776 193.157 275.844 193.348 275.873 193.548C275.902 193.747 275.89 193.95 275.839 194.145C275.788 194.339 275.698 194.522 275.575 194.681C275.452 194.84 275.297 194.973 275.122 195.071C274.946 195.17 274.753 195.232 274.552 195.254C274.352 195.276 274.15 195.257 273.957 195.199L273.956 195.201ZM64.8459 200.889C64.4696 201.018 64.1601 201.291 63.9853 201.648C63.8105 202.006 63.501 202.279 63.1247 202.408C62.7484 202.537 62.3362 202.512 61.9789 202.337C61.6215 202.162 61.3481 201.853 61.219 201.476C61.0899 201.1 61.1155 200.688 61.2903 200.33C61.8146 199.258 62.7433 198.438 63.8721 198.051C65.001 197.664 66.2375 197.74 67.3096 198.265C67.667 198.439 67.9403 198.749 68.0695 199.125C68.1986 199.502 68.173 199.914 67.9982 200.271C67.8234 200.629 67.5139 200.902 67.1376 201.031C66.7613 201.16 66.3491 201.135 65.9918 200.96C65.6344 200.785 65.2222 200.759 64.8459 200.889ZM59.5469 186.663C64.5384 183.162 70.9839 182.251 76.5841 184.989C85.1364 189.171 88.1475 200.041 83.7072 209.122C83.2192 210.122 82.6493 211.08 82.0035 211.986C81.5901 212.584 81.2834 213.248 81.0969 213.95C80.4267 216.363 79.0985 218.542 77.2608 220.243C75.4231 221.945 73.1483 223.101 70.6909 223.584C68.2335 224.067 65.6902 223.856 63.3456 222.976C61.0009 222.096 58.9472 220.581 57.4142 218.601C56.315 217.215 54.8244 216.191 53.1359 215.663C52.5332 215.475 51.939 215.238 51.3568 214.953C44.5599 211.63 42.132 203.087 45.5989 195.997C47.8568 191.379 52.105 188.383 56.67 187.739C57.7384 187.589 58.7335 187.234 59.5469 186.663ZM71.85 210.098C72.7852 209.272 73.5486 208.27 74.0966 207.149C75.2034 204.886 75.3658 202.276 74.5479 199.892C73.7301 197.509 71.999 195.549 69.7356 194.442C67.4722 193.335 64.8618 193.173 62.4786 193.991C60.0955 194.808 58.1349 196.539 57.0281 198.803C56.48 199.924 56.1581 201.141 56.0807 202.386C56.0032 203.632 56.1718 204.88 56.5768 206.06C56.9817 207.24 57.6151 208.328 58.4408 209.264C59.2665 210.199 60.2684 210.962 61.3891 211.51C62.5098 212.058 63.7275 212.38 64.9727 212.458C66.2178 212.535 67.466 212.367 68.6461 211.962C69.8261 211.557 70.9147 210.923 71.85 210.098ZM182.525 125.413L225.646 146.499L204.56 189.62L161.439 168.534L182.525 125.413ZM193.656 137.32L192.345 144.029L193.935 140.777L201.164 141.93L199.454 145.427L206.201 145.484L205.695 146.361L208.82 142.724L215.214 145.851L208.672 152.926L210.458 153.296L205.008 159.552C205.193 159.492 205.378 159.431 205.566 159.368C205.821 159.279 206.098 159.272 206.357 159.348C206.617 159.424 206.846 159.579 207.012 159.792C207.179 160.005 207.274 160.265 207.286 160.535C207.297 160.806 207.223 161.072 207.074 161.298L195.606 178.838C195.339 179.246 194.932 179.543 194.461 179.672C193.991 179.801 193.49 179.754 193.052 179.54L176.461 171.427C176.023 171.213 175.678 170.846 175.492 170.396C175.305 169.945 175.289 169.442 175.448 168.981L182.246 149.163C182.323 148.939 182.459 148.741 182.641 148.589C182.822 148.438 183.042 148.339 183.275 148.303C183.509 148.267 183.748 148.296 183.967 148.386C184.185 148.476 184.375 148.624 184.515 148.814L186.323 139.564L193.656 137.32ZM187.125 154.704C186.678 153.881 186.268 153.038 185.896 152.178L188.055 141.126L191.052 140.209L188.953 150.966L187.126 154.704L187.125 154.704ZM190.55 159.082C189.772 158.445 189.051 157.656 188.372 156.707L195.082 142.985L198.18 143.479L190.551 159.081L190.55 159.082ZM194.941 161.023C194.089 160.896 193.26 160.65 192.476 160.292L199.886 147.43L202.758 147.454L194.941 161.023ZM201.492 160.543C200.09 160.869 198.811 161.068 197.632 161.135L203.539 154.353L206.465 154.835L201.492 160.543ZM206.387 152.452L211.921 146.466L209.331 145.2L203.595 151.873L206.387 152.452ZM255.542 296.61C255.17 297.372 254.509 297.955 253.706 298.231C252.904 298.506 252.024 298.452 251.262 298.079L219.64 282.616C218.878 282.243 218.295 281.582 218.019 280.78C217.744 279.977 217.798 279.098 218.171 278.335C218.544 277.573 219.205 276.99 220.007 276.714C220.81 276.439 221.689 276.493 222.452 276.866L254.073 292.329C254.836 292.702 255.419 293.363 255.694 294.165C255.97 294.968 255.915 295.847 255.542 296.61ZM222.547 287.599L218.235 285.49C217.116 287.778 216.952 290.415 217.778 292.824C218.605 295.232 220.354 297.213 222.641 298.332L237.015 305.36C239.302 306.479 241.94 306.643 244.348 305.816C246.757 304.99 248.738 303.241 249.856 300.953L222.547 287.599ZM226.732 275.397L223.857 273.992L226.669 268.242C227.415 266.717 228.735 265.551 230.341 265C231.946 264.449 233.705 264.559 235.23 265.304L255.353 275.144C256.878 275.89 258.044 277.211 258.595 278.816C259.146 280.422 259.036 282.18 258.291 283.705L255.479 289.455L226.732 275.397ZM251.838 282.331C251.652 282.712 251.625 283.152 251.762 283.553C251.9 283.955 252.192 284.285 252.573 284.471C252.954 284.658 253.394 284.685 253.795 284.547C254.196 284.41 254.527 284.118 254.713 283.737C254.899 283.356 254.927 282.916 254.789 282.515C254.651 282.113 254.36 281.783 253.979 281.597C253.597 281.41 253.158 281.383 252.756 281.521C252.355 281.658 252.025 281.95 251.838 282.331ZM247.495 276.645C247.308 277.026 247.281 277.466 247.419 277.867C247.556 278.268 247.848 278.599 248.229 278.785C248.61 278.972 249.05 278.999 249.451 278.861C249.853 278.723 250.183 278.432 250.369 278.051C250.556 277.669 250.583 277.23 250.445 276.828C250.308 276.427 250.016 276.097 249.635 275.91C249.254 275.724 248.814 275.697 248.413 275.834C248.011 275.972 247.681 276.264 247.495 276.645ZM240.34 276.708C240.153 277.089 240.126 277.529 240.264 277.93C240.401 278.332 240.693 278.662 241.074 278.848C241.455 279.035 241.895 279.062 242.296 278.924C242.698 278.787 243.028 278.495 243.214 278.114C243.401 277.733 243.428 277.293 243.29 276.892C243.153 276.49 242.861 276.16 242.48 275.974C242.099 275.787 241.659 275.76 241.258 275.898C240.856 276.035 240.526 276.327 240.34 276.708ZM235.996 271.022C235.809 271.403 235.782 271.843 235.92 272.244C236.058 272.646 236.349 272.976 236.73 273.162C237.112 273.349 237.551 273.376 237.953 273.238C238.354 273.1 238.684 272.809 238.871 272.428C239.057 272.046 239.084 271.607 238.947 271.205C238.809 270.804 238.517 270.474 238.136 270.287C237.755 270.101 237.315 270.074 236.914 270.211C236.512 270.349 236.182 270.641 235.996 271.022ZM228.841 271.085C228.654 271.466 228.627 271.906 228.765 272.307C228.902 272.709 229.194 273.039 229.575 273.225C229.956 273.412 230.396 273.439 230.797 273.301C231.199 273.164 231.529 272.872 231.715 272.491C231.902 272.11 231.929 271.67 231.791 271.269C231.654 270.867 231.362 270.537 230.981 270.351C230.6 270.164 230.16 270.137 229.759 270.275C229.357 270.412 229.027 270.704 228.841 271.085ZM128.945 112.058C128.781 111.711 128.635 111.417 128.489 111.123L128.578 111.078C130.665 110.361 131.772 108.098 131.056 106.011C130.34 103.924 128.076 102.817 125.971 103.525L123.992 104.204C123.235 102.707 121.961 101.534 120.406 100.905C118.851 100.276 117.121 100.232 115.536 100.781L91.8594 108.907C90.2709 109.446 88.932 110.543 88.0911 111.995C87.2502 113.447 86.9645 115.154 87.2869 116.8L85.3072 117.48C83.1937 118.205 82.0867 120.469 82.8208 122.564C83.5369 124.651 85.8008 125.758 87.8875 125.042L87.9857 125.023C88.0512 125.345 88.1166 125.666 88.2004 126.041C89.4666 129.644 93.4553 131.594 97.0941 130.39L124.542 120.926C126.295 120.324 127.74 119.056 128.564 117.396C129.388 115.736 129.525 113.818 128.945 112.058ZM91.1393 115.478C91.1432 114.857 91.34 114.252 91.7025 113.747C92.0649 113.243 92.5752 112.863 93.1627 112.661L116.812 104.545C117.4 104.344 118.036 104.33 118.632 104.506C119.228 104.682 119.755 105.038 120.139 105.526L91.1393 115.478ZM123.256 117.135L95.8079 126.555C94.2475 127.106 92.5406 126.271 91.9989 124.693C91.4489 123.177 92.3274 121.38 93.8615 120.884L121.31 111.464C122.826 110.914 124.622 111.792 125.119 113.326C125.66 114.905 124.826 116.612 123.256 117.135ZM35.2088 299.722C37.2156 299.033 38.8667 297.575 39.7987 295.669L41.5559 292.076L37.7289 290.204L45.1536 285.219L43.1415 282.232L33.9918 288.377L21.7923 282.411L20.0351 286.005C19.1031 287.911 18.9664 290.109 19.6551 292.116C20.3438 294.123 21.8015 295.774 23.7076 296.706L29.0976 299.342C31.0037 300.274 33.2019 300.41 35.2088 299.722ZM0.350586 285.284L12.9274 291.434C15.5632 286.044 18.1989 280.654 20.3911 274.669C22.1288 269.886 23.5858 264.721 24.9886 259.485L26.0666 260.012L27.8238 256.419L18.8403 252.026L17.0832 255.619L18.1612 256.146C14.8899 260.469 11.708 264.79 9.00008 269.099C5.62214 274.504 2.98644 279.894 0.350749 285.284L0.350586 285.284Z" fill="#EF6B42" fill-opacity="0.5"/>
</svg>
