<svg width="64" height="67" viewBox="0 0 64 67" fill="none" xmlns="http://www.w3.org/2000/svg">
<g clip-path="url(#clip0_2_493)">
<path d="M33.6458 35.4243C34.887 34.2474 34.9289 32.7865 34.7928 31.4356C34.5785 29.5591 34.161 27.6852 33.5654 25.9213C30.609 17.8674 25.0264 12.1334 17.3288 8.48515C15.3684 7.56457 13.2439 6.90942 10.9616 6.06478C12.5197 4.40501 14.9171 3.90756 16.6192 2.28186C15.7166 1.81459 14.9793 2.14721 14.3607 2.40647C11.8268 3.48022 9.28161 4.60198 6.773 5.78313C5.57234 6.36105 5.32859 6.96266 5.98739 8.03153C7.3302 10.2767 9.22732 11.8923 11.6422 12.819C11.7381 12.8418 11.9161 12.7318 12.2014 12.5964C12.1627 10.4065 9.41066 10.2621 8.87196 8.25802C12.3638 8.27327 15.3933 9.59912 18.2587 11.1904C21.2567 12.8638 24.0425 14.7913 26.3219 17.3596C28.5648 19.8686 30.1663 22.7328 31.5671 25.8032C33.0271 28.8368 33.6401 32.0249 33.6458 35.4243Z" fill="white"/>
</g>
<path d="M13.2201 37.8378C12.8087 37.9635 12.5035 38.1124 12.192 38.321C11.4622 38.8355 10.9285 39.7809 11.1994 40.9919C11.3779 41.8191 11.9671 42.4119 12.7536 42.7359C13.0633 42.8891 13.7567 43.1792 13.8887 43.5309C14.0477 43.9699 13.7268 44.3826 13.4718 44.5127C12.9712 44.7979 12.3801 44.5669 11.8029 44.6631C11.4468 44.7222 11.2157 44.8547 11.1535 45.1016C11.1171 45.2184 11.0801 45.4558 11.2447 45.7265C11.5959 46.1737 12.3848 46.0153 12.8766 46.0428C13.7653 45.9673 14.4386 45.5313 14.7846 45.1092C15.0057 44.8428 15.2437 44.3007 15.3146 43.9703C15.4796 43.2034 15.0788 42.4252 14.6114 42.0503C13.9311 41.5203 12.6227 41.4552 12.5145 40.1889C12.4761 39.7505 13.0112 39.2517 13.6179 39.219C14.018 39.2007 14.2273 39.6209 14.3598 39.852C14.5113 40.1333 14.664 40.632 14.9611 40.6753C15.4252 40.7362 15.7926 40.1112 15.7454 39.7563C15.7448 39.6476 15.5789 39.1596 15.4664 38.9668C15.2157 38.0234 13.8614 37.5915 13.2201 37.8378ZM17.1706 42.078C17.6084 42.1602 18.1661 41.6758 19.0762 41.6267C19.3469 41.6913 19.6875 42.3546 19.3465 42.729C19.1304 42.9476 18.1116 42.7681 17.508 42.8857C17.1626 42.958 16.7185 43.1647 16.5339 43.3142C16.2437 43.5491 15.8895 43.9342 15.9543 44.5805C15.9613 44.8588 16.1736 45.1345 16.3684 45.348C16.8345 45.9641 17.349 46.2354 18.0243 46.5839C18.2184 46.6888 18.6989 46.8237 18.9055 46.8092C19.1957 46.8035 19.5512 46.4065 19.6598 46.1766C19.9185 45.5522 20.1068 44.9084 20.3108 44.23C20.4703 43.6314 20.7396 42.7909 20.6886 42.0134C20.6584 41.3827 20.3128 40.7672 19.8995 40.5669C19.1652 40.3208 18.5541 40.51 17.7621 40.8129C17.3626 40.9398 16.8853 41.1189 16.8948 41.6025C16.908 41.8211 16.9526 41.9706 17.1706 42.078ZM18.2946 43.8974C18.5226 43.9093 18.9823 43.8973 19.1237 44.0449C19.0798 44.4626 18.9562 45.2942 18.5762 45.3508C18.0121 45.2071 17.1553 44.8636 17.2161 44.1702C17.4202 43.9503 17.8385 43.8736 18.2946 43.8974ZM23.0542 45.1699C23.0334 44.5644 22.9296 43.6003 22.8478 43.0005C22.8076 42.6946 22.756 42.0376 22.6196 41.8423C22.3778 41.5031 21.7622 41.6194 21.5437 41.8619C21.4884 41.9285 21.3415 42.1785 21.4245 42.5371C21.4308 43.1652 21.9072 44.8322 22.0688 45.9351C22.1329 46.4728 22.1581 46.9219 22.5193 47.0443C23.1092 47.2873 23.6385 46.4983 23.9343 46.095C24.9095 44.7375 25.302 44.103 25.7962 43.4189C26.0656 43.037 26.4431 42.775 26.3205 42.2192C26.2369 41.7519 25.7589 41.593 25.3864 41.8073C24.9506 42.0511 24.7578 42.622 24.4282 43.1183C23.9704 43.6855 23.5302 44.5442 23.0542 45.1699ZM27.8015 45.8016C28.098 45.7362 28.6023 45.6445 28.9836 45.5759C29.5488 45.4785 29.8409 45.3403 30.398 45.2057C30.7315 45.1322 31.0009 44.7503 31.0109 44.4255C31.0335 44.2107 30.9166 43.7158 30.8481 43.5638C30.4616 42.3045 29.5194 41.8556 28.3072 42.1384C27.8148 42.2314 27.2288 42.6404 26.8859 43.1474C26.4488 43.6323 26.2385 44.3704 26.3574 45.4206C26.5768 46.433 26.8507 46.8118 27.776 47.3072C28.3508 47.6934 29.5366 47.6612 30.1917 47.2836C30.4121 47.1378 30.5107 46.7741 30.277 46.472C29.8523 46.1499 29.4504 46.7592 28.6684 46.5081C28.1546 46.3455 27.8556 46.2055 27.8015 45.8016ZM28.0386 43.546C28.8544 43.0164 29.5654 43.1394 29.7804 44.079C29.6994 44.2756 29.332 44.4421 29.0512 44.473C28.6247 44.5126 27.8717 44.6748 27.6606 44.6164C27.5877 44.3915 27.7019 43.764 28.0386 43.546ZM36.6163 41.1053C36.1057 41.2567 36.0926 42.1844 35.9558 42.7975C35.6652 44.0701 35.509 45.4413 35.1141 46.7874C34.9622 47.3144 34.6527 48.3075 35.2632 48.4682C35.5804 48.5498 36.0678 48.2752 36.2267 48.0265C36.459 47.6527 36.4344 46.8538 36.5587 46.36C36.7809 45.394 37.0005 43.9933 37.2409 42.9688C37.3508 42.4977 37.698 41.8343 37.5874 41.509C37.4642 41.0737 36.9152 41.016 36.6163 41.1053ZM41.6809 41.722C39.5095 41.8317 38.7416 43.7419 38.4291 45.338C38.2012 46.0138 37.981 47.5351 38.7316 48.0846C39.2361 48.4514 39.9692 48.9387 40.9823 48.8279C43.7158 48.5361 44.4249 44.7736 43.8977 43.4754C43.6219 42.7707 42.8944 41.6565 41.6809 41.722ZM40.2316 44.0312C40.4853 43.6838 41.0586 43.1649 41.5266 43.19C42.1377 43.2301 42.6931 44.1451 42.7064 44.593C42.743 45.6224 42.0988 47.3888 40.9758 47.5121C40.5361 47.5624 39.8357 47.2233 39.6849 46.8213C39.4788 46.2567 39.7097 44.7486 40.2316 44.0312ZM51.5954 42.4745C50.9755 42.518 50.8223 42.8276 50.4687 43.3214C49.9142 44.1198 49.4954 44.7756 48.9811 45.6507C48.6847 46.1745 48.4223 46.6055 48.1033 47.1149C47.9105 47.4566 47.4388 47.9259 47.4163 48.37C47.3994 48.875 47.8687 49.1174 48.3937 48.9433C48.9678 48.7623 49.3772 47.8521 49.6698 47.364C50.1671 46.5355 50.7021 45.5781 51.3194 44.6415C51.5913 44.2357 52.3675 43.2796 52.2613 42.7979C52.2066 42.5146 51.9729 42.4418 51.5954 42.4745ZM47.2043 42.1216C46.6107 42.1437 45.9249 42.4698 45.6831 42.8184C45.2994 43.3693 45.2493 44.5345 45.7607 44.9502C47.279 46.2319 49.2008 44.9377 48.9833 43.5634C48.884 42.9014 48.0045 42.085 47.2043 42.1216ZM47.6939 44.0071C47.5225 44.8337 46.1839 43.9087 47.0343 43.3948C47.4394 43.3288 47.7817 43.6302 47.6939 44.0071ZM52.3165 46.2908C51.6274 46.3028 50.762 46.7307 50.4562 47.2295C50.0034 47.9783 50.1173 49.0762 50.6782 49.3644C51.2046 49.6369 52.1568 49.5319 52.6498 49.3182C53.0543 49.1436 53.5724 48.6912 53.6817 48.3407C54.0358 47.2679 52.9458 46.2725 52.3165 46.2908ZM52.4442 47.9452C52.3991 48.3748 51.9959 48.5376 51.629 48.3542C50.8287 47.9323 52.5528 47.0275 52.4442 47.9452ZM8.0632 57.422C8.81818 57.3566 9.42747 57.5292 10.08 57.1755C10.7452 56.9317 11.4919 56.3707 11.8322 55.8876C12.3962 55.1143 12.3457 53.9869 11.9085 53.3255C11.2099 52.3954 10.3619 52.1977 9.17473 52.0126C8.68292 51.985 7.9449 52.004 7.6799 52.4588C7.35847 53.4506 7.06409 54.759 6.88336 55.7898C6.75975 56.6214 6.64994 57.3218 6.532 58.2143C6.46613 58.7263 6.24576 59.3305 6.66285 59.495C7.31235 59.7443 7.6841 59.1921 7.80775 58.5897C7.89939 58.1771 7.93386 57.7342 8.0632 57.422ZM10.6902 55.2729C10.2469 56.0468 9.13711 56.3886 8.13839 56.2475C8.15713 55.6099 8.40446 54.6344 8.61852 53.8606C8.77169 53.3216 8.73525 53.2092 9.28798 53.2311C10.4198 53.2535 11.3263 54.1573 10.6902 55.2729ZM14.3565 56.4546C14.653 56.3892 15.1573 56.2974 15.5386 56.2289C16.1038 56.1315 16.3959 55.9932 16.953 55.8587C17.2865 55.7852 17.5559 55.4032 17.5659 55.0785C17.5885 54.8637 17.4716 54.3688 17.4031 54.2168C17.0166 52.9575 16.0744 52.5085 14.8622 52.7914C14.3698 52.8844 13.7838 53.2934 13.4409 53.8003C13.0038 54.2853 12.7935 55.0234 12.9124 56.0735C13.1318 57.086 13.4057 57.4647 14.331 57.9602C14.9058 58.3464 16.0916 58.3141 16.7467 57.9365C16.9671 57.7908 17.0657 57.4271 16.832 57.125C16.4073 56.8029 16.0054 57.4122 15.2234 57.1611C14.7096 56.9985 14.4106 56.8584 14.3565 56.4546ZM14.5936 54.199C15.4094 53.6694 16.1204 53.7924 16.3354 54.732C16.2544 54.9286 15.887 55.0951 15.6062 55.1259C15.1797 55.1656 14.4267 55.3277 14.2156 55.2694C14.1427 55.0445 14.2569 54.417 14.5936 54.199ZM20.0256 53.0565C19.9308 52.9259 19.7474 52.8342 19.5671 52.8274C18.9201 52.7835 18.8988 53.2156 18.6986 54.0875C18.4896 55.0429 18.2845 56.6502 18.0981 57.6201C18.0359 57.8669 17.9593 58.1364 17.992 58.2846C18.0366 58.4341 18.2722 58.6037 18.45 58.6344C18.901 58.7059 19.1302 58.7059 19.2922 58.3127C19.4881 57.8265 19.6179 56.4767 19.7127 55.9195C19.734 55.7166 20.6032 55.253 21.1076 55.1612C21.318 55.1109 21.845 55.0336 22.1019 55.0002C22.3468 54.9656 22.8172 54.7376 22.7958 54.2527C22.7719 54.0209 22.5018 53.8356 22.2537 53.7854C21.8303 53.6806 21.3209 53.8201 20.9862 53.9056C20.6753 53.9936 20.2294 54.3328 19.941 54.206C20.0063 53.8147 20.1143 53.4761 20.0256 53.0565ZM27.9221 56.167C27.8749 55.8121 28.4933 54.1758 28.0429 53.7544C27.9229 53.6332 27.6497 53.5924 27.5109 53.6502C26.9582 53.8576 26.9181 54.4687 26.8114 55.2539C26.7512 55.5975 26.6639 56.083 26.5623 56.5912C26.4474 57.11 26.3778 57.6577 26.2993 58.0597C26.2002 58.544 26.0941 58.9793 26.3296 59.1489C26.4521 59.2462 26.8592 59.2769 27.0614 59.1896C27.2888 59.0928 27.4935 58.7524 27.6887 58.3868C28.0241 57.7222 28.3939 57.3025 28.7858 56.7887C28.9962 56.5091 29.182 56.1184 29.5344 56.0951C29.694 56.6428 29.3801 57.3338 29.2263 57.9933C29.1642 58.2402 29.0744 58.5203 29.0819 58.678C29.1216 59.3337 29.8766 59.2683 30.271 58.9598C30.7828 58.5672 31.2488 57.8077 31.6287 57.2926C31.7587 57.0891 31.9245 56.8893 32.1638 56.7938C32.1971 57.28 32.0446 57.6983 31.941 58.1097C31.8519 58.4985 31.6843 59.0601 31.7226 59.4985C31.7893 60.2416 32.6674 60.1528 32.923 59.6729C33.058 59.4217 33.1471 58.8036 33.2218 58.4374C33.3015 58.0235 33.3705 57.5963 33.4596 57.2075C33.5965 56.5945 34.034 55.0719 33.5315 54.8019C32.9253 54.4848 32.4154 55.2034 32.1284 55.5231C31.9507 55.7217 31.6951 55.9723 31.5161 56.1828C31.3371 56.3932 31.1274 56.5521 30.7738 56.8166C30.8823 55.6697 30.8946 54.1748 29.7094 54.5449C29.2478 54.6895 28.8019 55.258 28.5005 55.6003C28.3372 55.7762 28.0621 56.0972 27.9221 56.167ZM36.6924 54.7962C36.3043 54.8158 36.0995 54.927 35.7905 55.1117C35.2994 55.4221 35.2259 55.5471 34.9063 55.9478C34.2996 56.6684 34.0241 58.027 34.5651 58.9647C34.8735 59.3591 35.5256 59.8138 36.128 59.9374C36.8472 60.0974 37.4175 59.9523 37.9023 59.7016C38.7502 59.2115 39.3958 58.3503 39.3636 57.3937C39.4764 55.8611 38.4555 54.6678 36.6924 54.7962ZM35.568 57.8032C35.5277 57.0388 36.2172 55.9891 36.8742 55.9375C37.7259 55.8701 38.3478 56.8405 38.0277 57.8204C37.8638 58.3461 37.303 58.7457 36.9217 58.8142C36.1127 58.9343 35.602 58.398 35.568 57.8032ZM41.5866 57.6877C41.513 56.8956 42.0875 55.4477 41.1139 55.5264C40.5536 55.5761 40.5004 56.4272 40.405 57.105C40.2802 57.9485 40.0843 58.664 39.913 59.4906C39.7504 60.2337 39.5257 60.9943 40.4037 60.9056C40.7322 60.8798 41.2352 59.8829 41.4757 59.5462C41.8964 58.9872 41.8117 58.9903 42.4912 58.2654C42.765 57.9563 43.0513 57.5279 43.4263 57.519C43.4415 58.0636 43.3467 58.3915 43.2148 58.9568C43.0698 59.5328 42.9437 60.159 42.918 60.7476C43.1474 61.2061 43.979 61.1004 44.1768 60.711C44.2383 60.5847 44.2207 60.2933 44.2432 60.0784C44.3467 59.2085 44.7881 57.8793 44.803 57.0484C44.8074 56.6627 44.6628 56.2011 44.5284 56.1025C44.0956 55.7433 43.5963 56.0166 43.2621 56.2107C42.8238 56.4783 42.4495 56.8251 42.1455 57.1914C41.9929 57.3804 41.8227 57.5073 41.5866 57.6877ZM48.7649 56.1978C48.7189 55.3725 48.9676 55.0729 49.1176 54.4491C49.2689 54.0427 49.3731 53.7399 48.7727 53.713C47.8248 53.6617 47.8375 54.4594 47.6574 55.1403C47.5808 55.4097 47.4458 56.1195 47.2279 56.2414C47.0232 56.3526 46.201 56.2541 45.9441 56.2875C45.6953 56.3578 45.4674 56.5752 45.4077 56.7982C45.3267 56.9948 45.3714 57.3736 45.6082 57.5312C45.9368 57.7346 46.811 57.4525 47.041 57.7904C46.9205 58.4775 46.8509 59.0252 46.7316 59.4712C46.6971 59.6848 46.4585 60.5767 46.4002 60.7878C46.3562 60.9762 45.9858 61.975 46.0373 62.1735C46.1033 62.3493 46.4739 62.4969 46.7402 62.4887C47.3457 62.4678 47.5566 61.1507 47.6827 60.7537C47.7436 60.5187 47.9596 59.6124 48.0085 59.3762C48.0744 59.0935 48.2997 57.7537 48.5465 57.5866C48.7814 57.4182 49.7512 57.6046 50.1413 57.4526C50.4057 57.3476 50.5853 57.0166 50.5475 56.6868C50.4872 56.1134 49.0225 56.5024 48.7649 56.1978ZM52.9559 56.9882C52.8353 56.9876 53.0939 56.134 53.2063 55.639C53.2784 55.2967 53.5616 54.7835 53.375 54.3777C53.2757 54.1743 52.9648 54.033 52.6841 54.0638C52.1345 54.1267 52.0323 55.214 51.8791 55.9822C51.7297 56.7146 51.5791 57.2296 51.404 58.0921C51.1291 59.3301 50.9413 59.8534 50.679 60.9721C50.5239 61.6435 50.4669 62.3012 50.9844 62.428C51.73 62.5667 51.7915 61.9819 51.9151 61.3795C52.1455 60.4505 52.1806 59.8871 52.4606 59.0598C52.5994 58.7727 52.7966 58.5039 53.0314 58.3355C53.2425 58.1646 53.5251 58.0013 53.9189 58.0427C54.103 58.243 53.9122 59.5985 53.8941 59.8862C53.7479 61.1619 53.5169 62.2115 53.6256 62.4401C53.7343 62.6687 54.2482 62.8313 54.5396 62.5844C54.8693 62.3174 54.9175 61.5141 54.9846 60.761C55.0599 60.0449 55.2042 59.131 55.2299 58.5424C55.2687 57.714 55.119 56.8415 54.6052 56.6789C53.9161 56.4617 53.5789 57.0296 52.9559 56.9882Z" fill="white"/>
<defs>
<clipPath id="clip0_2_493">
<rect width="28.3944" height="34.4457" fill="white" transform="matrix(0.230386 -0.973099 -0.973099 -0.230386 34.2461 35.5664)"/>
</clipPath>
</defs>
</svg>
